<svg xmlns="http://www.w3.org/2000/svg" fill="none" viewBox="0 0 32 32"><g fill="#c24233"><path d="M29.008 1h-6.57c-.406 0-.739.298-.739.67v2.583h-1.805V1.67c0-.372-.33-.67-.74-.67H12.59c-.41 0-.74.298-.74.67v2.583h-1.805V1.67c0-.372-.332-.67-.739-.67H2.74C2.333 1 2 1.298 2 1.67v22.926a.67.67 0 0 0 .398.595l6.565 3.115 6.565 3.115q.01.005.019.006.033.016.067.028.039.017.085.023.035.009.074.013.05.005.1.006.049 0 .099-.006a.8.8 0 0 0 .243-.07l.04-.02 6.525-3.095 6.57-3.115a.67.67 0 0 0 .395-.595V1.67c0-.372-.333-.67-.74-.67zm-.739 23.19-5.092 2.414V2.34h5.092zm-6.568 3.118-5.089 2.415V5.593h5.089zM3.477 2.34h5.091v24.264L3.477 24.19zm11.658 27.383-5.089-2.415V5.593h5.089zM13.329 2.34h5.088v1.912h-5.088z"/><path d="M6.024 3.797c-.565 0-1.022.415-1.022.927s.457.927 1.022.927c.564 0 1.021-.415 1.021-.927s-.457-.927-1.021-.927M25.724 5.651c.565 0 1.022-.415 1.022-.927s-.457-.927-1.022-.927c-.564 0-1.022.415-1.022.927s.458.927 1.022.927M12.59 7.111c-.565 0-1.022.415-1.022.927s.457.927 1.022.927 1.022-.415 1.022-.927-.457-.927-1.022-.927M19.157 7.111c-.565 0-1.022.415-1.022.927s.457.927 1.022.927 1.022-.415 1.022-.927-.457-.927-1.022-.927"/></g></svg>