<svg width="24" height="24" viewBox="0 0 24 24" fill="none" xmlns="http://www.w3.org/2000/svg">
<path d="M12 2C6.477 2 2 6.477 2 12C2 16.42 4.865 20.17 8.84 21.49C9.34 21.58 9.52 21.27 9.52 21.01C9.52 20.75 9.51 19.97 9.51 19.17C7 19.6 6.35 18.77 6.15 18.33C6.04 18.1 5.65 17.33 5.1 17.07C4.65 16.86 4.13 16.29 5.1 16.28C6.06 16.27 6.7 17.18 6.94 17.59C7.31 18.25 8.06 18.58 8.84 18.58C9.65 18.58 10.34 18.2 10.66 17.88C10.78 17.33 11.01 16.95 11.27 16.75C8.23 16.45 5.05 15.31 5.05 11.47C5.05 10.49 5.4 9.67 6.01 9.03C5.91 8.76 5.68 7.91 6.14 6.73C6.14 6.73 6.82 6.5 9.53 7.94C10.32 7.72 11.15 7.61 12 7.61C12.85 7.61 13.68 7.72 14.47 7.94C17.18 6.5 17.86 6.73 17.86 6.73C18.32 7.91 18.09 8.76 17.99 9.03C18.6 9.67 18.95 10.49 18.95 11.47C18.95 15.32 15.76 16.45 12.72 16.74C13.05 17.01 13.34 17.52 13.34 18.33C13.34 19.54 13.33 20.48 13.33 21.01C13.33 21.27 13.51 21.58 14.02 21.49C18 20.17 20.85 16.42 20.85 12C20.85 6.477 16.373 2 12 2Z" fill="white"/>
</svg>
