<svg xmlns="http://www.w3.org/2000/svg" fill="none" viewBox="0 0 24 24"><path fill="#fff" d="M12 2C6.477 2 2 6.477 2 12c0 4.42 2.865 8.17 6.84 9.49.5.09.68-.22.68-.48s-.01-1.04-.01-1.84c-2.51.43-3.16-.4-3.36-.84-.11-.23-.5-1-1.05-1.26-.45-.21-.97-.78 0-.79.96-.01 1.6.9 1.84 1.31.37.66 1.12.99 1.9.99.81 0 1.5-.38 1.82-.7.12-.55.35-.93.61-1.13-3.04-.3-6.22-1.44-6.22-5.28 0-.98.35-1.8.96-2.44-.1-.27-.33-1.12.13-2.3 0 0 .68-.23 3.39 1.21A9.2 9.2 0 0 1 12 7.61c.85 0 1.68.11 2.47.33 2.71-1.44 3.39-1.21 3.39-1.21.46 1.18.23 2.03.13 2.3.61.64.96 1.46.96 2.44 0 3.85-3.19 4.98-6.23 5.27.33.27.62.78.62 1.59 0 1.21-.01 2.15-.01 2.68 0 .26.18.57.69.48A9.98 9.98 0 0 0 20.85 12c0-5.523-4.477-10-8.85-10"/></svg>