<svg xmlns="http://www.w3.org/2000/svg" fill="none" viewBox="0 0 32 32"><path fill="#fff" d="M26.16 9.457a2.45 2.45 0 0 0-.707-1.333 3.1 3.1 0 0 0-1.333-.347 73 73 0 0 0-8.4 0c-4.12.187-8.24.734-9.333 1.534a.9.9 0 0 0-.36.56c-.14.76-.203 1.533-.187 2.306-.034 3.26.122 6.519.467 9.76a.427.427 0 0 0 .84-.146 44 44 0 0 1-.227-4.774c0-2.08 0-4.333.133-5.746a1.3 1.3 0 0 1 0-.254c1.44 1 3.92 2.667 6 3.867a9.5 9.5 0 0 0 3.52 1.333 8.8 8.8 0 0 0 3.027-1.706 42 42 0 0 0 5-4.494q.068.155.093.32c.165 1.153.25 2.316.254 3.48a56 56 0 0 1-.267 6.854q.01.14 0 .28h-.547c-1.866.2-5.893.493-9.586.733-3.067.2-5.907.347-7.107.373a.467.467 0 0 0-.467.48.48.48 0 0 0 .48.48c2.187 0 9.734-.266 14.294-.52 1.506-.08 2.666-.16 3.253-.226.227-.015.45-.073.653-.174a.84.84 0 0 0 .307-.373q.14-.416.2-.853a54 54 0 0 0 .427-7.08 21.3 21.3 0 0 0-.427-4.334m-8.693 4.587c-.3.229-.639.4-1 .507a3 3 0 0 1-.934-.294c-.746-.306-1.72-.786-2.76-1.333-1.96-.933-4.12-2.133-5.386-2.827a26.1 26.1 0 0 1 6.56-.773 96 96 0 0 1 9.853 0c-.827.76-2.12 1.787-3.427 2.747a32 32 0 0 1-2.906 1.973M3.44 4.617a2.8 2.8 0 0 0-.773-.76c-.36-.24-.734-.373-1.107-.586a.427.427 0 1 0-.613.586q.33.704.786 1.334.282.311.627.546c.333.254.693.427 1.027.694a.48.48 0 0 0 .666 0 .48.48 0 0 0 0-.68 6.7 6.7 0 0 0-.613-1.134m-2 11.374q.288.039.573 0c.307 0 .547-.147.854-.16a.466.466 0 0 0 .573-.334.467.467 0 0 0-.333-.586 3.2 3.2 0 0 0-.96-.427 2.1 2.1 0 0 0-.814-.08c-.333.08-.573.227-.893.333a.426.426 0 0 0-.417.564.41.41 0 0 0 .378.276q.494.27 1.04.414m1.453 10.186c-.346.2-.68.334-1.013.534a2 2 0 0 0-.4.28 2 2 0 0 0-.347.346q-.351.486-.613 1.027a.414.414 0 1 0 .587.587c.373-.187.706-.28 1.053-.494q.208-.12.387-.28.177-.163.333-.346c.253-.32.44-.64.667-.974a.466.466 0 0 0 0-.68.48.48 0 0 0-.654 0m25.854-20.2q.515-.297.986-.653.185-.156.347-.333.16-.165.28-.36c.213-.334.32-.667.533-.987a.44.44 0 0 0 0-.6.427.427 0 0 0-.586 0c-.387.156-.76.352-1.107.587a1.7 1.7 0 0 0-.36.346 3 3 0 0 0-.28.387c-.213.333-.347.667-.533 1.013a.467.467 0 0 0 .375.797.48.48 0 0 0 .345-.197m2.746 8.014c-.386 0-.706-.187-1.093-.24a3 3 0 0 0-.493 0 3.4 3.4 0 0 0-.507 0q-.637.105-1.24.346a.48.48 0 0 0-.4.547.467.467 0 0 0 .547.4c.386 0 .746.173 1.133.227q.41.039.813 0a4.3 4.3 0 0 0 1.414-.494.4.4 0 0 0 .32-.493.427.427 0 0 0-.494-.293m-1.6 12.106a7 7 0 0 0-.533-.48l-.6-.413c-.507-.307-1.013-.547-1.533-.8a.47.47 0 0 0-.667.12.493.493 0 0 0 .12.667c.413.4.76.84 1.173 1.24q.407.399.867.733a15 15 0 0 0 1.76.907.427.427 0 0 0 .587-.08.41.41 0 0 0-.094-.587c-.306-.44-.693-.893-1.08-1.307"/></svg>