<svg xmlns="http://www.w3.org/2000/svg" fill="none" viewBox="0 0 380 80"><rect width="376" height="76" x="2" y="2" fill="url(#a)" rx="18"/><rect width="376" height="76" x="2" y="2" rx="18"/><g clip-path="url(#b)"><path fill="#fff" d="M47.042 57.222c9.475 0 17.156-7.68 17.156-17.156S56.517 22.91 47.042 22.91s-17.156 7.681-17.156 17.156 7.681 17.156 17.156 17.156"/><path fill="#000" fill-opacity=".1" d="M57.96 43.186c0-6.03-4.889-10.918-10.918-10.918-6.03 0-10.918 4.888-10.918 10.918h3.12a7.798 7.798 0 0 1 15.596 0"/><path fill="#000" fill-opacity=".1" d="M47.822 48.176a5.926 5.926 0 1 0 0-11.853 5.926 5.926 0 0 0 0 11.853"/><path fill="url(#c)" d="M47.042 46.46a6.395 6.395 0 1 0 0-12.788 6.395 6.395 0 0 0 0 12.789"/><path fill="url(#d)" d="M62.638 32.268c-4.294-8.64-14.777-12.161-23.416-7.868a17.47 17.47 0 0 0-6.684 5.84l7.018 12.165a7.798 7.798 0 0 1 7.33-10.137"/><path fill="url(#e)" d="M32.538 30.24c-5.372 8.014-3.23 18.864 4.782 24.236a17.5 17.5 0 0 0 8.318 2.903l7.33-12.478a7.798 7.798 0 0 1-13.412-2.495"/><path fill="url(#f)" d="M45.638 57.379c9.62.727 18.008-6.482 18.735-16.102a17.47 17.47 0 0 0-1.735-9.008H46.886a7.798 7.798 0 0 1 6.082 12.633"/><path fill="url(#g)" d="m32.538 30.24 7.018 12.166a7.8 7.8 0 0 1 .312-5.303l-7.019-7.33"/><path fill="url(#h)" d="m45.638 57.379 7.33-12.477a7.8 7.8 0 0 1-4.523 2.65l-3.12 9.827"/><path fill="url(#i)" d="M62.638 32.268H46.886a7.8 7.8 0 0 1 6.082 2.963l9.982-2.495"/></g><path fill="#fff" d="M74.792 49V31.72h2.544V49zm6.07 0V36.76h2.375v2.88h.12V49zm8.687 0v-7.872q0-1.272-.648-1.896-.624-.624-1.872-.624-1.08 0-1.92.48a3.54 3.54 0 0 0-1.296 1.32q-.456.84-.456 1.992l-.312-2.928a4.77 4.77 0 0 1 1.848-2.16q1.248-.792 2.904-.792 1.968 0 3.096 1.104t1.128 2.928V49zm10.236.24q-2.4 0-3.816-1.056t-1.608-2.976h2.304q.168 1.056.96 1.632.816.552 2.208.552 1.224 0 1.872-.432t.648-1.224q0-.576-.384-.96-.36-.408-1.44-.672l-1.968-.456q-1.848-.456-2.76-1.344-.888-.912-.888-2.232 0-1.656 1.224-2.592 1.248-.96 3.408-.96 2.136 0 3.432.96 1.32.96 1.488 2.688h-2.304q-.144-.864-.84-1.32-.672-.48-1.848-.48-1.104 0-1.704.408a1.23 1.23 0 0 0-.576 1.08q0 .576.432.96.456.384 1.488.648l2.016.504q1.752.432 2.64 1.416.888.96.888 2.328 0 1.656-1.296 2.592-1.272.936-3.576.936m12.37 0q-2.136 0-3.144-.984-.984-1.008-.984-2.952V33.952l2.472-.936v12.312q0 .96.504 1.416t1.632.456a3.7 3.7 0 0 0 1.344-.24v2.016q-.264.12-.744.192t-1.08.072m-6.576-10.488V36.76h8.4v1.992zM123.859 49a6 6 0 0 1-.168-1.008 32 32 0 0 1-.024-1.344h-.12v-5.832q0-1.176-.6-1.752-.576-.6-1.848-.6-1.224 0-1.968.48-.72.48-.84 1.368h-2.376q.168-1.728 1.56-2.76t3.72-1.032q2.4 0 3.6 1.128 1.2 1.104 1.2 3.264v5.736q0 .552.072 1.128t.216 1.224zm-4.224.24q-1.872 0-2.976-.912-1.104-.936-1.104-2.52 0-1.632 1.152-2.568 1.176-.96 3.36-1.296l4.032-.648v1.752l-3.648.576q-1.224.192-1.848.648-.6.456-.6 1.32 0 .84.552 1.272.576.408 1.656.408 1.44 0 2.376-.696.96-.696.96-1.752l.312 1.776q-.432 1.272-1.536 1.968-1.104.672-2.688.672m9.742-.24V31.72h2.496V49zm6 0V31.72h2.496V49zm10.758 0V31.72h2.952l9.168 14.784-.576.12V31.72h2.448V49h-2.952l-9.168-14.784.576-.12V49zm22.859.24q-1.872 0-3.288-.816a5.93 5.93 0 0 1-2.208-2.28q-.792-1.464-.792-3.312 0-1.872.792-3.288a5.85 5.85 0 0 1 2.208-2.208q1.416-.816 3.288-.816 1.896 0 3.312.816a5.47 5.47 0 0 1 2.184 2.208q.792 1.416.792 3.288 0 1.848-.792 3.312a5.76 5.76 0 0 1-2.184 2.28q-1.416.816-3.312.816m0-2.04q1.128 0 1.944-.552.84-.552 1.32-1.536t.48-2.304q0-1.968-1.056-3.096-1.032-1.152-2.688-1.152-1.632 0-2.688 1.152-1.032 1.152-1.032 3.096 0 1.32.456 2.304.48.984 1.32 1.536a3.53 3.53 0 0 0 1.944.552m11.114 1.8-3.744-12.24h2.568l2.544 9.84h-.36l3.096-9.84h2.16l3.096 9.84h-.336l2.52-9.84h2.448L190.356 49h-2.184l-3.096-9.672h.36L182.292 49zm25.883 2.64q-2.448-2.232-3.624-4.896-1.152-2.664-1.152-5.424 0-2.712 1.176-5.376 1.176-2.688 3.6-4.944h2.4q-2.424 2.256-3.648 4.848-1.2 2.568-1.2 5.472 0 2.928 1.248 5.52 1.248 2.568 3.6 4.8zm5.301-2.64V31.72h2.544V49zm1.248-7.176v-2.088h9.504v2.088zm0-8.016V31.72h10.152v2.088zm17.743 15.432q-1.872 0-3.288-.816a5.93 5.93 0 0 1-2.208-2.28q-.792-1.464-.792-3.312 0-1.872.792-3.288a5.85 5.85 0 0 1 2.208-2.208q1.416-.816 3.288-.816 1.896 0 3.312.816a5.47 5.47 0 0 1 2.184 2.208q.792 1.416.792 3.288 0 1.848-.792 3.312a5.76 5.76 0 0 1-2.184 2.28q-1.416.816-3.312.816m0-2.04q1.128 0 1.944-.552.84-.552 1.32-1.536t.48-2.304q0-1.968-1.056-3.096-1.032-1.152-2.688-1.152-1.632 0-2.688 1.152-1.032 1.152-1.032 3.096 0 1.32.456 2.304.48.984 1.32 1.536a3.53 3.53 0 0 0 1.944.552m8.852 1.8V36.76h2.376v3.048h.12V49zm2.496-6.384-.312-2.904q.432-1.56 1.488-2.376t2.52-.816q.552 0 .768.096v2.352a.9.9 0 0 0-.336-.048 5 5 0 0 0-.528-.024q-1.8 0-2.712.936-.888.936-.888 2.784m19.058 6.624q-1.8 0-3.336-.648a8.2 8.2 0 0 1-2.664-1.848 8.8 8.8 0 0 1-1.728-2.832q-.624-1.632-.624-3.576t.6-3.552q.624-1.632 1.728-2.808a7.75 7.75 0 0 1 2.664-1.848q1.536-.648 3.336-.648 2.016 0 3.624.816a6.74 6.74 0 0 1 2.616 2.256q1.032 1.464 1.272 3.408h-2.496q-.312-2.04-1.656-3.168-1.32-1.152-3.336-1.152-1.704 0-3.024.84-1.296.816-2.016 2.328-.72 1.488-.72 3.528 0 2.016.72 3.552.744 1.512 2.04 2.352t3 .84q2.016 0 3.36-1.128 1.368-1.152 1.656-3.192h2.52q-.264 1.968-1.296 3.432a7.2 7.2 0 0 1-2.64 2.256q-1.584.792-3.6.792m10.227-.24V31.72h2.496V49zm8.688 0v-7.872q0-1.272-.648-1.896-.624-.624-1.872-.624-1.08 0-1.92.48a3.54 3.54 0 0 0-1.296 1.32q-.456.84-.456 1.992l-.312-2.928a4.77 4.77 0 0 1 1.848-2.16q1.248-.792 2.904-.792 1.968 0 3.096 1.104t1.128 2.928V49zm5.867 0V36.76h2.376v3.048h.12V49zm2.496-6.384-.312-2.904q.432-1.56 1.488-2.376t2.52-.816q.552 0 .768.096v2.352a.9.9 0 0 0-.336-.048 5 5 0 0 0-.528-.024q-1.8 0-2.712.936-.888.936-.888 2.784m11.949 6.624q-1.872 0-3.288-.816a5.93 5.93 0 0 1-2.208-2.28q-.792-1.464-.792-3.312 0-1.872.792-3.288a5.85 5.85 0 0 1 2.208-2.208q1.416-.816 3.288-.816 1.896 0 3.312.816a5.47 5.47 0 0 1 2.184 2.208q.792 1.416.792 3.288 0 1.848-.792 3.312a5.76 5.76 0 0 1-2.184 2.28q-1.416.816-3.312.816m0-2.04q1.128 0 1.944-.552.84-.552 1.32-1.536t.48-2.304q0-1.968-1.056-3.096-1.032-1.152-2.688-1.152-1.632 0-2.688 1.152-1.032 1.152-1.032 3.096 0 1.32.456 2.304.48.984 1.32 1.536a3.53 3.53 0 0 0 1.944.552m8.852 1.8V36.76h2.376v2.88h.12V49zm8.256 0v-7.992q0-1.248-.576-1.824t-1.656-.576q-1.008 0-1.824.48a3.25 3.25 0 0 0-1.248 1.296q-.456.816-.456 1.944l-.312-2.856q.6-1.368 1.8-2.16a4.93 4.93 0 0 1 2.736-.792q1.824 0 2.904 1.056 1.104 1.056 1.104 2.784V49zm8.256 0v-7.992q0-1.248-.6-1.824-.576-.576-1.656-.576-.984 0-1.8.48a3.4 3.4 0 0 0-1.272 1.296q-.456.816-.456 1.944l-.504-2.856a4.9 4.9 0 0 1 1.872-2.16 5.25 5.25 0 0 1 2.832-.792q1.848 0 2.952 1.08 1.104 1.056 1.104 2.832V49zm11.104.24q-1.848 0-3.264-.816a5.8 5.8 0 0 1-2.184-2.256q-.792-1.44-.792-3.312 0-1.896.768-3.312a5.6 5.6 0 0 1 2.208-2.232q1.416-.792 3.24-.792 1.776 0 3.072.768a4.97 4.97 0 0 1 2.016 2.088q.72 1.344.72 3.192 0 .288-.024.552 0 .24-.048.504h-10.272v-1.872h8.52l-.624.744q0-1.968-.888-3t-2.472-1.032q-1.704 0-2.712 1.176-.984 1.152-.984 3.216 0 2.088.984 3.264 1.008 1.176 2.784 1.176 1.08 0 1.872-.432.792-.456 1.176-1.32h2.352q-.6 1.728-2.04 2.712-1.416.984-3.408.984m7.98-18.336q2.448 2.232 3.6 4.896 1.176 2.664 1.176 5.424 0 2.712-1.176 5.4-1.176 2.664-3.6 4.92h-2.4q2.424-2.256 3.624-4.824a12.7 12.7 0 0 0 1.224-5.496 12.4 12.4 0 0 0-1.248-5.496q-1.248-2.592-3.6-4.824z"/><defs><linearGradient id="a" x1="190" x2="190" y1="0" y2="80" gradientUnits="userSpaceOnUse"><stop stop-color="#00b445"/><stop offset="1" stop-color="#006f2a"/></linearGradient><linearGradient id="c" x1="47.046" x2="47.046" y1="33.661" y2="46.461" gradientUnits="userSpaceOnUse"><stop stop-color="#81b4e0"/><stop offset="1" stop-color="#0c5a94"/></linearGradient><linearGradient id="d" x1="47.588" x2="47.588" y1="22.598" y2="36.791" gradientUnits="userSpaceOnUse"><stop stop-color="#f06b59"/><stop offset="1" stop-color="#df2227"/></linearGradient><linearGradient id="e" x1="33.828" x2="41.002" y1="52.483" y2="40.63" gradientUnits="userSpaceOnUse"><stop stop-color="#388b41"/><stop offset="1" stop-color="#4cb749"/></linearGradient><linearGradient id="f" x1="57.861" x2="50.218" y1="53.743" y2="35.34" gradientUnits="userSpaceOnUse"><stop stop-color="#e4b022"/><stop offset=".3" stop-color="#fcd209"/></linearGradient><linearGradient id="g" x1="36.203" x2="36.203" y1="41.938" y2="29.461" gradientUnits="userSpaceOnUse"><stop stop-opacity=".15"/><stop offset=".3" stop-opacity=".06"/><stop offset="1" stop-opacity=".03"/></linearGradient><linearGradient id="h" x1="53.424" x2="44.846" y1="45.967" y2="54.701" gradientUnits="userSpaceOnUse"><stop stop-opacity=".15"/><stop offset=".3" stop-opacity=".06"/><stop offset="1" stop-opacity=".03"/></linearGradient><linearGradient id="i" x1="53.3" x2="54.548" y1="48.481" y2="36.159" gradientUnits="userSpaceOnUse"><stop stop-opacity=".15"/><stop offset=".3" stop-opacity=".06"/><stop offset="1" stop-opacity=".03"/></linearGradient><clipPath id="b"><path fill="#fff" d="M29 22h36v36H29z"/></clipPath></defs></svg>