<svg xmlns="http://www.w3.org/2000/svg" fill="none" viewBox="0 0 231 78"><path fill="#1f1f1f" d="M94.267 12.082h-5.851V39.29h-5.424V12.082H77.14V6.83H94.27v5.253zM102.212 6.829V20.24h6.108V6.83h5.424v32.464h-5.424V25.496h-6.108v13.797h-5.424V6.829zM117.504 39.29V6.829h15.549v5.253h-10.125v8.073h7.518v5.253h-7.518v8.629h10.125v5.253zM171.71 39.29h-6.835L161.5 16.993l-3.373 22.297h-6.834L145.1 6.826h5.509l4.017 23.45 3.885-23.45h5.98l3.886 23.45 4.016-23.45h5.51zM189.266 32.285h-6.663l-1.453 7.005h-5.552l7.689-32.464h5.296l7.688 32.464h-5.552zm-1.068-5.253-2.265-10.936-2.264 10.936h4.529M213.571 39.29h-14.907V6.829h5.467v27.208h9.44zM231 39.29h-14.907V6.829h5.467v27.208H231z"/><path fill="#b72b00" d="M62.471 0H47.275c-.94 0-1.709.761-1.709 1.71v6.585h-4.177V1.709C41.39.761 40.628 0 39.68 0H24.495c-.948 0-1.71.761-1.71 1.71v6.585H18.61V1.709c0-.948-.77-1.709-1.71-1.709H1.71C.77 0 0 .761 0 1.71v58.456c0 .641.358 1.22.921 1.52l15.186 7.942 15.185 7.943c.016.008.026.016.042.016q.076.04.155.07a.7.7 0 0 0 .198.058c.05.016.112.026.17.034.078.008.156.017.23.017s.155-.009.23-.017q.296-.039.564-.178l.093-.051 15.092-7.892 15.195-7.942c.564-.3.914-.879.914-1.52V1.71c0-.948-.77-1.709-1.71-1.709zm-1.71 59.13-11.777 6.158V3.416h11.778zM45.57 67.083l-11.77 6.159V11.71h11.77zM3.416 3.416h11.777v61.873L3.416 59.13zM30.38 73.242l-11.77-6.159V11.711h11.77zM26.204 3.416h11.77v4.876h-11.77z"/><path fill="#b72b00" d="M9.307 7.133a2.363 2.363 0 1 0 0 4.727 2.363 2.363 0 1 0 0-4.727M54.876 11.86a2.363 2.363 0 1 0 .001-4.725 2.363 2.363 0 0 0-.001 4.725M24.495 15.583a2.363 2.363 0 1 0-.002 4.726 2.363 2.363 0 0 0 .002-4.726M39.685 15.583a2.363 2.363 0 1 0 0 4.727 2.363 2.363 0 1 0 0-4.727"/></svg>