<svg width="16" height="16" viewBox="0 0 16 16" fill="none" xmlns="http://www.w3.org/2000/svg">
<path d="M14.0488 8.5981L12.0758 5.35454C11.2068 3.81662 8.64364 4.10097 8.14664 5.76364C6.77854 2.81843 2.50116 4.91303 4.29537 7.62913C2.97306 7.33348 1.64946 8.33683 1.66679 9.62895C1.64222 11.9443 5.19777 12.431 5.88545 10.2431C6.7136 12.1125 9.33545 12.1737 10.057 10.2325C11.3516 13.039 15.4389 11.3115 14.0488 8.5981ZM3.82579 11.0151C1.90637 10.9825 1.90663 8.27495 3.82579 8.24278C5.74522 8.27544 5.74496 10.983 3.82579 11.0151ZM9.12899 8.71843C9.2048 8.8439 9.27154 8.97454 9.32432 9.11033C9.56674 9.7338 9.52095 10.3524 8.72875 10.8194C8.05687 11.2052 7.11203 10.965 6.73352 10.3121L4.76054 7.06853C4.56547 6.74783 4.51372 6.37434 4.61462 6.01656C4.92612 4.83813 6.66884 4.62082 7.29028 5.68236C7.29028 5.68236 8.3249 7.38456 8.33602 7.4042L9.12873 8.71867L9.12899 8.71843ZM8.74609 6.38023C8.77895 4.55844 11.6342 4.55869 11.6665 6.38023C11.6336 8.20202 8.77843 8.20177 8.74609 6.38023ZM13.5898 9.98157C13.4022 10.7052 12.5552 11.1696 11.801 10.9618C11.4243 10.8661 11.1092 10.6367 10.9141 10.316C10.8145 10.1542 9.80347 8.48908 9.73801 8.38005C10.8228 8.62462 11.9607 7.97046 12.2659 6.99339L13.4439 8.92985C13.639 9.25055 13.6907 9.62404 13.5898 9.98182V9.98157Z" fill="black"/>
</svg>
