<svg width="13" height="13" viewBox="0 0 13 13" fill="none" xmlns="http://www.w3.org/2000/svg">
<path d="M10.7111 4.99081C10.7111 4.83608 10.648 4.6843 10.5296 4.56998C10.4107 4.45515 10.2458 4.38806 10.071 4.38797H2.92902C2.75421 4.38806 2.58934 4.45515 2.47036 4.56998C2.35197 4.6843 2.28892 4.83608 2.28886 4.99081V11.7401L3.38769 10.6792C3.71495 10.3633 4.1563 10.1892 4.61259 10.1891H10.071C10.2458 10.189 10.4107 10.121 10.5296 10.0062C10.6479 9.89183 10.7111 9.74005 10.7111 9.58535V4.99081ZM4.16554 7.86295V6.7141C4.16554 6.41289 4.41121 6.16817 4.71451 6.16808C5.0179 6.16808 5.26437 6.41283 5.26437 6.7141V7.86295C5.2642 8.16407 5.01779 8.40808 4.71451 8.40808C4.41132 8.40799 4.16572 8.16401 4.16554 7.86295ZM7.73563 7.86295V6.7141C7.73563 6.41283 7.9821 6.16808 8.28549 6.16808C8.58879 6.16817 8.83446 6.41289 8.83446 6.7141V7.86295C8.83428 8.16401 8.58868 8.40799 8.28549 8.40808C7.98221 8.40808 7.7358 8.16407 7.73563 7.86295ZM11.81 6.74251H12.451C12.7544 6.74251 13 6.98726 13 7.28852C12.9999 7.58969 12.7543 7.83365 12.451 7.83365H11.81V9.58535C11.81 10.0398 11.6229 10.4728 11.295 10.7893C10.9677 11.105 10.5271 11.2792 10.071 11.2793H4.61259C4.43765 11.2794 4.27295 11.3473 4.15392 11.4622L2.84319 12.7265C2.70643 12.8585 2.53411 12.9465 2.34876 12.9822C2.16344 13.0178 1.97085 12.9999 1.79532 12.9298C1.61963 12.8596 1.46675 12.7395 1.35812 12.5827C1.24936 12.4256 1.19008 12.2393 1.19003 12.0473V7.83365H0.548968C0.245655 7.83365 0.000115179 7.58969 0 7.28852C0 6.98726 0.245584 6.74251 0.548968 6.74251H1.19003V4.99081C1.19009 4.53649 1.37721 4.10417 1.70502 3.7878C2.03229 3.47196 2.47278 3.29692 2.92902 3.29682H5.95103V2.09026H4.11995C3.81656 2.09026 3.57008 1.84639 3.57008 1.54513C3.57008 1.24387 3.81656 1 4.11995 1H6.5C6.80338 1 7.04897 1.24387 7.04897 1.54513V3.29682H10.071C10.5272 3.29692 10.9677 3.47196 11.295 3.7878C11.6228 4.10417 11.8099 4.53649 11.81 4.99081V6.74251Z" fill="#212121"/>
</svg>
