<svg xmlns="http://www.w3.org/2000/svg" width="18" height="18" viewBox="0 0 18 18">
  <path fill="black" d="M9 .75a.75.75 0 0 0-.75.75.75.75 0 0 0 .75.75c2.965 0 5.17 1.736 6.18 4.03 1.01 2.293.804 5.09-1.198 7.277a.75.75 0 0 0 .047 1.06.75.75 0 0 0 1.059-.049c2.402-2.625 2.69-6.109 1.463-8.894S12.559.749 9 .75M3.656 2.713q-.385.33-.73.703a.75.75 0 0 0 .04 1.06.75.75 0 0 0 1.061-.04q.286-.309.606-.582a.75.75 0 0 0 .082-1.06.75.75 0 0 0-1.059-.081M9 5.25a.75.75 0 0 0-.531.219l-3 3a.75.75 0 0 0 0 1.062.75.75 0 0 0 1.062 0L8.25 7.812V12a.75.75 0 0 0 .75.75.75.75 0 0 0 .75-.75V7.813l1.719 1.718a.75.75 0 0 0 1.062 0 .75.75 0 0 0 0-1.062l-3-3A.75.75 0 0 0 9 5.25m-6.89.693a.75.75 0 0 0-.948.479A8.3 8.3 0 0 0 .75 8.896a.75.75 0 0 0 .74.76.75.75 0 0 0 .76-.74 6.8 6.8 0 0 1 .338-2.025.75.75 0 0 0-.479-.948m.288 5.36a.75.75 0 0 0-.574.01.75.75 0 0 0-.388.986 8.25 8.25 0 0 0 2.003 2.805.75.75 0 0 0 1.059-.047.75.75 0 0 0-.047-1.06 6.75 6.75 0 0 1-1.64-2.296.75.75 0 0 0-.413-.398m9.487 3.799a6.75 6.75 0 0 1-5.15.257.75.75 0 0 0-.958.454.75.75 0 0 0 .453.958 8.26 8.26 0 0 0 6.297-.312.75.75 0 0 0 .358-1 .75.75 0 0 0-1-.357" />
</svg>
