<svg xmlns="http://www.w3.org/2000/svg" width="16" height="16" aria-hidden="true" viewBox="0 0 16 16">
    <path d="M2.5.25A2.26 2.26 0 0 0 .25 2.5v11a2.26 2.26 0 0 0 2.25 2.25h11a2.26 2.26 0 0 0 2.25-2.25v-11A2.26 2.26 0 0 0 13.5.25zm0 1.5h11c.428 0 .75.322.75.75v1.459L9.973 7.381 7.277 5.584a.5.5 0 0 0-.656.09L4.2 8.5H1.75v-6c0-.428.322-.75.75-.75m11.75 3.49v4.522l-4.205 1.681-4.656-2.795 1.703-1.986 2.63 1.754a.5.5 0 0 0 .59-.025zM1.75 9.5h1.592L1.75 11.357zm2.908 0h.203l4.881 2.93a.5.5 0 0 0 .444.035l4.064-1.625v2.66c0 .428-.322.75-.75.75h-11a.73.73 0 0 1-.75-.75v-.607z" style="baseline-shift:baseline;display:inline;overflow:visible;vector-effect:none;fill:#000;stroke:none;stroke-width:1;stroke-linecap:butt;stroke-linejoin:miter;stop-color:#000"/>
</svg>
