<svg xmlns="http://www.w3.org/2000/svg" viewBox="0 0 87.419 81.967"><defs><radialGradient id="b" cx="-7907.187" cy="-8515.121" r="80.797" gradientTransform="translate(7978.7 8523.996)" gradientUnits="userSpaceOnUse"><stop offset=".129" stop-color="#ffbd4f"/><stop offset=".186" stop-color="#ffac31"/><stop offset=".247" stop-color="#ff9d17"/><stop offset=".283" stop-color="#ff980e"/><stop offset=".403" stop-color="#ff563b"/><stop offset=".467" stop-color="#ff3750"/><stop offset=".71" stop-color="#f5156c"/><stop offset=".782" stop-color="#eb0878"/><stop offset=".86" stop-color="#e50080"/></radialGradient><radialGradient id="c" cx="-7936.711" cy="-8482.089" r="80.797" gradientTransform="translate(7978.7 8523.996)" gradientUnits="userSpaceOnUse"><stop offset=".3" stop-color="#960e18"/><stop offset=".351" stop-color="#b11927" stop-opacity=".74"/><stop offset=".435" stop-color="#db293d" stop-opacity=".343"/><stop offset=".497" stop-color="#f5334b" stop-opacity=".094"/><stop offset=".53" stop-color="#ff3750" stop-opacity="0"/></radialGradient><radialGradient id="d" cx="-7926.97" cy="-8533.457" r="58.534" gradientTransform="translate(7978.7 8523.996)" gradientUnits="userSpaceOnUse"><stop offset=".132" stop-color="#fff44f"/><stop offset=".252" stop-color="#ffdc3e"/><stop offset=".506" stop-color="#ff9d12"/><stop offset=".526" stop-color="#ff980e"/></radialGradient><radialGradient id="e" cx="-7945.648" cy="-8460.984" r="38.471" gradientTransform="translate(7978.7 8523.996)" gradientUnits="userSpaceOnUse"><stop offset=".353" stop-color="#3a8ee6"/><stop offset=".472" stop-color="#5c79f0"/><stop offset=".669" stop-color="#9059ff"/><stop offset="1" stop-color="#c139e6"/></radialGradient><radialGradient id="f" cx="-7935.62" cy="-8491.546" r="20.397" gradientTransform="rotate(-13.6 37916.175 -38439.25)scale(1 1.17)" gradientUnits="userSpaceOnUse"><stop offset=".206" stop-color="#9059ff" stop-opacity="0"/><stop offset=".278" stop-color="#8c4ff3" stop-opacity=".064"/><stop offset=".747" stop-color="#7716a8" stop-opacity=".45"/><stop offset=".975" stop-color="#6e008b" stop-opacity=".6"/></radialGradient><radialGradient id="g" cx="-7937.731" cy="-8518.427" r="27.676" gradientTransform="translate(7978.7 8523.996)" gradientUnits="userSpaceOnUse"><stop offset="0" stop-color="#ffe226"/><stop offset=".121" stop-color="#ffdb27"/><stop offset=".295" stop-color="#ffc82a"/><stop offset=".502" stop-color="#ffa930"/><stop offset=".732" stop-color="#ff7e37"/><stop offset=".792" stop-color="#ff7139"/></radialGradient><radialGradient id="h" cx="-7915.977" cy="-8535.981" r="118.081" gradientTransform="translate(7978.7 8523.996)" gradientUnits="userSpaceOnUse"><stop offset=".113" stop-color="#fff44f"/><stop offset=".456" stop-color="#ff980e"/><stop offset=".622" stop-color="#ff5634"/><stop offset=".716" stop-color="#ff3647"/><stop offset=".904" stop-color="#e31587"/></radialGradient><radialGradient id="i" cx="-7927.165" cy="-8522.859" r="86.499" gradientTransform="rotate(83.98 -7045.68 1634.997)scale(1 .657)" gradientUnits="userSpaceOnUse"><stop offset="0" stop-color="#fff44f"/><stop offset=".06" stop-color="#ffe847"/><stop offset=".168" stop-color="#ffc830"/><stop offset=".304" stop-color="#ff980e"/><stop offset=".356" stop-color="#ff8b16"/><stop offset=".455" stop-color="#ff672a"/><stop offset=".57" stop-color="#ff3647"/><stop offset=".737" stop-color="#e31587"/></radialGradient><radialGradient id="j" cx="-7938.383" cy="-8508.176" r="73.72" gradientTransform="translate(7978.7 8523.996)" gradientUnits="userSpaceOnUse"><stop offset=".137" stop-color="#fff44f"/><stop offset=".48" stop-color="#ff980e"/><stop offset=".592" stop-color="#ff5634"/><stop offset=".655" stop-color="#ff3647"/><stop offset=".904" stop-color="#e31587"/></radialGradient><radialGradient id="k" cx="-7918.923" cy="-8503.861" r="80.686" gradientTransform="translate(7978.7 8523.996)" gradientUnits="userSpaceOnUse"><stop offset=".094" stop-color="#fff44f"/><stop offset=".231" stop-color="#ffe141"/><stop offset=".509" stop-color="#ffaf1e"/><stop offset=".626" stop-color="#ff980e"/></radialGradient><linearGradient id="a" x1="70.786" x2="6.447" y1="12.393" y2="74.468" gradientTransform="translate(3.7 -.004)" gradientUnits="userSpaceOnUse"><stop offset=".048" stop-color="#fff44f"/><stop offset=".111" stop-color="#ffe847"/><stop offset=".225" stop-color="#ffc830"/><stop offset=".368" stop-color="#ff980e"/><stop offset=".401" stop-color="#ff8b16"/><stop offset=".462" stop-color="#ff672a"/><stop offset=".534" stop-color="#ff3647"/><stop offset=".705" stop-color="#e31587"/></linearGradient><linearGradient id="l" x1="70.013" x2="15.267" y1="12.061" y2="66.806" gradientTransform="translate(3.7 -.004)" gradientUnits="userSpaceOnUse"><stop offset=".167" stop-color="#fff44f" stop-opacity=".8"/><stop offset=".266" stop-color="#fff44f" stop-opacity=".634"/><stop offset=".489" stop-color="#fff44f" stop-opacity=".217"/><stop offset=".6" stop-color="#fff44f" stop-opacity="0"/></linearGradient></defs><path d="M79.616 26.827c-1.684-4.052-5.1-8.427-7.775-9.81a40.3 40.3 0 0 1 3.925 11.764l.007.065C71.391 17.92 63.96 13.516 57.891 3.924a47 47 0 0 1-.913-1.484 12 12 0 0 1-.427-.8 7 7 0 0 1-.578-1.535.1.1 0 0 0-.088-.1.14.14 0 0 0-.073 0c-.005 0-.013.009-.019.01l-.028.016.015-.026c-9.735 5.7-13.038 16.252-13.342 21.53a19.4 19.4 0 0 0-10.666 4.11 12 12 0 0 0-1-.757 17.97 17.97 0 0 1-.109-9.473 28.7 28.7 0 0 0-9.329 7.21h-.018c-1.536-1.947-1.428-8.367-1.34-9.708a7 7 0 0 0-1.294.687 28 28 0 0 0-3.788 3.245 34 34 0 0 0-3.623 4.347v.006-.007a32.7 32.7 0 0 0-5.2 11.743l-.052.256a62 62 0 0 0-.381 2.42c0 .029-.006.056-.009.085A37 37 0 0 0 5 41.042v.2a38.759 38.759 0 0 0 76.954 6.554c.065-.5.118-.995.176-1.5a39.86 39.86 0 0 0-2.514-19.47m-44.67 30.338c.181.087.351.18.537.264l.027.017q-.282-.135-.564-.281m40.83-28.31v-.037l.007.04z" style="fill:url(#a)"/><path d="M79.616 26.827c-1.684-4.052-5.1-8.427-7.775-9.81a40.3 40.3 0 0 1 3.925 11.764v.037l.007.04a35.1 35.1 0 0 1-1.206 26.159c-4.442 9.53-15.194 19.3-32.024 18.825-18.185-.515-34.2-14.01-37.194-31.683-.545-2.787 0-4.2.274-6.465A29 29 0 0 0 5 41.042v.2a38.759 38.759 0 0 0 76.954 6.554c.065-.5.118-.995.176-1.5a39.86 39.86 0 0 0-2.514-19.47" style="fill:url(#b)"/><path d="M79.616 26.827c-1.684-4.052-5.1-8.427-7.775-9.81a40.3 40.3 0 0 1 3.925 11.764v.037l.007.04a35.1 35.1 0 0 1-1.206 26.159c-4.442 9.53-15.194 19.3-32.024 18.825-18.185-.515-34.2-14.01-37.194-31.683-.545-2.787 0-4.2.274-6.465A29 29 0 0 0 5 41.042v.2a38.759 38.759 0 0 0 76.954 6.554c.065-.5.118-.995.176-1.5a39.86 39.86 0 0 0-2.514-19.47" style="fill:url(#c)"/><path d="M60.782 31.383q.124.089.241.177a21.1 21.1 0 0 0-3.6-4.695C45.377 14.817 54.266.742 55.765.027l.015-.022c-9.735 5.7-13.038 16.252-13.342 21.53.452-.031.9-.07 1.362-.07a19.56 19.56 0 0 1 16.982 9.918" style="fill:url(#d)"/><path d="M43.825 33.789c-.064.964-3.47 4.289-4.661 4.289-11.021 0-12.81 6.667-12.81 6.667.488 5.614 4.4 10.238 9.129 12.684.216.112.435.213.654.312q.569.252 1.138.466a17.2 17.2 0 0 0 5.043.973c19.317.906 23.059-23.1 9.119-30.066a13.38 13.38 0 0 1 9.345 2.269A19.56 19.56 0 0 0 43.8 21.466c-.46 0-.91.038-1.362.069a19.4 19.4 0 0 0-10.666 4.11c.591.5 1.258 1.169 2.663 2.554 2.63 2.59 9.375 5.275 9.39 5.59" style="fill:url(#e)"/><path d="M43.825 33.789c-.064.964-3.47 4.289-4.661 4.289-11.021 0-12.81 6.667-12.81 6.667.488 5.614 4.4 10.238 9.129 12.684.216.112.435.213.654.312q.569.252 1.138.466a17.2 17.2 0 0 0 5.043.973c19.317.906 23.059-23.1 9.119-30.066a13.38 13.38 0 0 1 9.345 2.269A19.56 19.56 0 0 0 43.8 21.466c-.46 0-.91.038-1.362.069a19.4 19.4 0 0 0-10.666 4.11c.591.5 1.258 1.169 2.663 2.554 2.63 2.59 9.375 5.275 9.39 5.59" style="fill:url(#f)"/><path d="M29.965 24.357c.314.2.573.374.8.53a17.97 17.97 0 0 1-.109-9.472 28.7 28.7 0 0 0-9.329 7.21c.189-.005 5.811-.106 8.638 1.732" style="fill:url(#g)"/><path d="M5.354 42.159c2.991 17.674 19.009 31.168 37.194 31.683 16.83.476 27.582-9.294 32.024-18.825a35.1 35.1 0 0 0 1.206-26.158v-.037c0-.03-.006-.046 0-.037l.007.065c1.375 8.977-3.191 17.674-10.329 23.555l-.022.05c-13.908 11.327-27.218 6.834-29.912 5q-.282-.135-.564-.281c-8.109-3.876-11.459-11.264-10.741-17.6a9.95 9.95 0 0 1-9.181-5.775 14.62 14.62 0 0 1 14.249-.572 19.3 19.3 0 0 0 14.552.572c-.015-.315-6.76-3-9.39-5.59-1.405-1.385-2.072-2.052-2.663-2.553a12 12 0 0 0-1-.758c-.23-.157-.489-.327-.8-.531-2.827-1.838-8.449-1.737-8.635-1.732h-.018c-1.536-1.947-1.428-8.367-1.34-9.708a7 7 0 0 0-1.294.687 28 28 0 0 0-3.788 3.245 34 34 0 0 0-3.638 4.337v.006-.007a32.7 32.7 0 0 0-5.2 11.743c-.019.079-1.396 6.099-.717 9.22" style="fill:url(#h)"/><path d="M57.425 26.865a21.1 21.1 0 0 1 3.6 4.7c.213.16.412.32.581.476 8.787 8.1 4.183 19.55 3.84 20.365 7.138-5.881 11.7-14.578 10.329-23.555C71.391 17.92 63.96 13.516 57.891 3.924a47 47 0 0 1-.913-1.484 12 12 0 0 1-.427-.8 7 7 0 0 1-.578-1.535.1.1 0 0 0-.088-.1.14.14 0 0 0-.073 0c-.005 0-.013.009-.019.01l-.028.016c-1.499.71-10.388 14.786 1.66 26.834" style="fill:url(#i)"/><path d="M61.6 32.036a8 8 0 0 0-.581-.476q-.117-.09-.241-.177a13.38 13.38 0 0 0-9.345-2.27c13.94 6.97 10.2 30.973-9.119 30.067a17.2 17.2 0 0 1-5.043-.973q-.569-.213-1.138-.466c-.219-.1-.438-.2-.654-.312l.027.017c2.694 1.839 16 6.332 29.912-5l.022-.05c.347-.81 4.951-12.263-3.84-20.36" style="fill:url(#j)"/><path d="M26.354 44.745s1.789-6.667 12.81-6.667c1.191 0 4.6-3.325 4.661-4.29a19.3 19.3 0 0 1-14.552-.571 14.62 14.62 0 0 0-14.249.572 9.95 9.95 0 0 0 9.181 5.775c-.718 6.337 2.632 13.725 10.741 17.6.181.087.351.18.537.264-4.733-2.445-8.641-7.07-9.129-12.683" style="fill:url(#k)"/><path d="M79.616 26.827c-1.684-4.052-5.1-8.427-7.775-9.81a40.3 40.3 0 0 1 3.925 11.764l.007.065C71.391 17.92 63.96 13.516 57.891 3.924a47 47 0 0 1-.913-1.484 12 12 0 0 1-.427-.8 7 7 0 0 1-.578-1.535.1.1 0 0 0-.088-.1.14.14 0 0 0-.073 0c-.005 0-.013.009-.019.01l-.028.016.015-.026c-9.735 5.7-13.038 16.252-13.342 21.53.452-.031.9-.07 1.362-.07a19.56 19.56 0 0 1 16.982 9.918 13.38 13.38 0 0 0-9.345-2.27c13.94 6.97 10.2 30.973-9.119 30.067a17.2 17.2 0 0 1-5.043-.973q-.569-.213-1.138-.466c-.219-.1-.438-.2-.654-.312l.027.017q-.282-.135-.564-.281c.181.087.351.18.537.264-4.733-2.446-8.641-7.07-9.129-12.684 0 0 1.789-6.667 12.81-6.667 1.191 0 4.6-3.325 4.661-4.29-.015-.314-6.76-3-9.39-5.59-1.405-1.384-2.072-2.051-2.663-2.552a12 12 0 0 0-1-.758 17.97 17.97 0 0 1-.109-9.473 28.7 28.7 0 0 0-9.329 7.21h-.018c-1.536-1.947-1.428-8.367-1.34-9.708a7 7 0 0 0-1.294.687 28 28 0 0 0-3.788 3.245 34 34 0 0 0-3.623 4.347v.006-.007a32.7 32.7 0 0 0-5.2 11.743l-.052.256c-.073.34-.4 2.073-.447 2.445 0 .028 0-.03 0 0A45 45 0 0 0 5 41.042v.2a38.759 38.759 0 0 0 76.954 6.554c.065-.5.118-.995.176-1.5a39.86 39.86 0 0 0-2.514-19.47m-3.845 1.99.007.042z" style="fill:url(#l)"/></svg>