<svg width="380" height="80" viewBox="0 0 380 80" fill="none" xmlns="http://www.w3.org/2000/svg">
<rect x="2" y="2" width="376" height="76" rx="18" fill="url(#paint0_linear_40_34)"/>
<rect x="2" y="2" width="376" height="76" rx="18"/>
<g clip-path="url(#clip0_40_34)">
<path d="M47.042 57.2223C56.5169 57.2223 64.1979 49.5413 64.1979 40.0664C64.1979 30.5914 56.5169 22.9104 47.042 22.9104C37.567 22.9104 29.886 30.5914 29.886 40.0664C29.886 49.5413 37.567 57.2223 47.042 57.2223Z" fill="white"/>
<path d="M57.9591 43.1857C57.9591 37.1559 53.0713 32.2678 47.0418 32.2678C41.0124 32.2678 36.1243 37.1559 36.1243 43.1857H39.2433C39.2433 38.8786 42.735 35.3874 47.0415 35.3874C51.348 35.3874 54.8398 38.8786 54.8398 43.1857" fill="black" fill-opacity="0.1"/>
<path d="M47.8218 48.1762C51.0949 48.1762 53.7483 45.5229 53.7483 42.2497C53.7483 38.9766 51.0949 36.3232 47.8218 36.3232C44.5486 36.3232 41.8953 38.9766 41.8953 42.2497C41.8953 45.5229 44.5486 48.1762 47.8218 48.1762Z" fill="black" fill-opacity="0.1"/>
<path d="M47.042 46.4606C50.5735 46.4606 53.4365 43.5977 53.4365 40.0661C53.4365 36.5345 50.5735 33.6716 47.042 33.6716C43.5104 33.6716 40.6475 36.5345 40.6475 40.0661C40.6475 43.5977 43.5104 46.4606 47.042 46.4606Z" fill="url(#paint1_linear_40_34)"/>
<path d="M62.6381 32.2678C58.3445 23.6289 47.8607 20.1065 39.2215 24.4001C36.5278 25.7388 34.2254 27.7506 32.5376 30.2405L39.5562 42.4054C38.2633 38.2975 40.5465 33.919 44.6544 32.6264C45.3769 32.3991 46.1288 32.2784 46.8861 32.2681" fill="url(#paint2_linear_40_34)"/>
<path d="M32.5375 30.2407C27.1656 38.2541 29.3071 49.1044 37.3202 54.4763C39.7995 56.1383 42.6631 57.1374 45.6381 57.3785L52.9684 44.9014C50.2276 48.2233 45.3127 48.6944 41.9906 45.9533C40.8621 45.0228 40.0183 43.7935 39.5558 42.4059" fill="url(#paint3_linear_40_34)"/>
<path d="M45.6382 57.3788C55.2581 58.1059 63.6458 50.8969 64.3731 41.2773C64.6078 38.1734 64.0087 35.0632 62.6378 32.2686H46.8861C51.1926 32.2882 54.6683 35.7957 54.648 40.1025C54.64 41.845 54.0487 43.5345 52.9684 44.9017" fill="url(#paint4_linear_40_34)"/>
<path d="M32.5376 30.2407L39.5562 42.4056C39.0363 40.6561 39.1465 38.7796 39.8675 37.1029L32.8492 29.7727" fill="url(#paint5_linear_40_34)"/>
<path d="M45.6381 57.3787L52.9683 44.9016C51.8117 46.2808 50.2137 47.2174 48.4453 47.5527L45.3259 57.3787" fill="url(#paint6_linear_40_34)"/>
<path d="M62.638 32.2678H46.886C48.0573 32.2734 49.2123 32.5426 50.2652 33.0557C51.3182 33.5687 52.2421 34.3124 52.9683 35.2314L62.9501 32.7358" fill="url(#paint7_linear_40_34)"/>
</g>
<path d="M74.7916 49V31.72H77.3356V49H74.7916ZM80.8614 49V36.76H83.2374V39.64H83.3574V49H80.8614ZM89.5494 49V41.128C89.5494 40.28 89.3334 39.648 88.9014 39.232C88.4854 38.816 87.8614 38.608 87.0294 38.608C86.3094 38.608 85.6694 38.768 85.1094 39.088C84.5654 39.408 84.1334 39.848 83.8134 40.408C83.5094 40.968 83.3574 41.632 83.3574 42.4L83.0454 39.472C83.4454 38.56 84.0614 37.84 84.8934 37.312C85.7254 36.784 86.6934 36.52 87.7974 36.52C89.1094 36.52 90.1414 36.888 90.8934 37.624C91.6454 38.36 92.0214 39.336 92.0214 40.552V49H89.5494ZM99.7852 49.24C98.1852 49.24 96.9132 48.888 95.9692 48.184C95.0252 47.48 94.4892 46.488 94.3612 45.208H96.6652C96.7772 45.912 97.0972 46.456 97.6252 46.84C98.1692 47.208 98.9052 47.392 99.8332 47.392C100.649 47.392 101.273 47.248 101.705 46.96C102.137 46.672 102.353 46.264 102.353 45.736C102.353 45.352 102.225 45.032 101.969 44.776C101.729 44.504 101.249 44.28 100.529 44.104L98.5612 43.648C97.3292 43.344 96.4092 42.896 95.8012 42.304C95.2092 41.696 94.9132 40.952 94.9132 40.072C94.9132 38.968 95.3212 38.104 96.1372 37.48C96.9692 36.84 98.1052 36.52 99.5452 36.52C100.969 36.52 102.113 36.84 102.977 37.48C103.857 38.12 104.353 39.016 104.465 40.168H102.161C102.065 39.592 101.785 39.152 101.321 38.848C100.873 38.528 100.257 38.368 99.4732 38.368C98.7372 38.368 98.1692 38.504 97.7692 38.776C97.3852 39.032 97.1932 39.392 97.1932 39.856C97.1932 40.24 97.3372 40.56 97.6252 40.816C97.9292 41.072 98.4252 41.288 99.1132 41.464L101.129 41.968C102.297 42.256 103.177 42.728 103.769 43.384C104.361 44.024 104.657 44.8 104.657 45.712C104.657 46.816 104.225 47.68 103.361 48.304C102.513 48.928 101.321 49.24 99.7852 49.24ZM112.155 49.24C110.731 49.24 109.683 48.912 109.011 48.256C108.355 47.584 108.027 46.6 108.027 45.304V33.952L110.499 33.016V45.328C110.499 45.968 110.667 46.44 111.003 46.744C111.339 47.048 111.883 47.2 112.635 47.2C112.923 47.2 113.179 47.176 113.403 47.128C113.627 47.08 113.819 47.024 113.979 46.96V48.976C113.803 49.056 113.555 49.12 113.235 49.168C112.915 49.216 112.555 49.24 112.155 49.24ZM105.579 38.752V36.76H113.979V38.752H105.579ZM123.859 49C123.779 48.696 123.723 48.36 123.691 47.992C123.675 47.624 123.667 47.176 123.667 46.648H123.547V40.816C123.547 40.032 123.347 39.448 122.947 39.064C122.563 38.664 121.947 38.464 121.099 38.464C120.283 38.464 119.627 38.624 119.131 38.944C118.651 39.264 118.371 39.72 118.291 40.312H115.915C116.027 39.16 116.547 38.24 117.475 37.552C118.403 36.864 119.643 36.52 121.195 36.52C122.795 36.52 123.995 36.896 124.795 37.648C125.595 38.384 125.995 39.472 125.995 40.912V46.648C125.995 47.016 126.019 47.392 126.067 47.776C126.115 48.16 126.187 48.568 126.283 49H123.859ZM119.635 49.24C118.387 49.24 117.395 48.936 116.659 48.328C115.923 47.704 115.555 46.864 115.555 45.808C115.555 44.72 115.939 43.864 116.707 43.24C117.491 42.6 118.611 42.168 120.067 41.944L124.099 41.296V43.048L120.451 43.624C119.635 43.752 119.019 43.968 118.603 44.272C118.203 44.576 118.003 45.016 118.003 45.592C118.003 46.152 118.187 46.576 118.555 46.864C118.939 47.136 119.491 47.272 120.211 47.272C121.171 47.272 121.963 47.04 122.587 46.576C123.227 46.112 123.547 45.528 123.547 44.824L123.859 46.6C123.571 47.448 123.059 48.104 122.323 48.568C121.587 49.016 120.691 49.24 119.635 49.24ZM129.377 49V31.72H131.873V49H129.377ZM135.377 49V31.72H137.873V49H135.377ZM146.135 49V31.72H149.087L158.255 46.504L157.679 46.624V31.72H160.127V49H157.175L148.007 34.216L148.583 34.096V49H146.135ZM168.994 49.24C167.746 49.24 166.65 48.968 165.706 48.424C164.762 47.864 164.026 47.104 163.498 46.144C162.97 45.168 162.706 44.064 162.706 42.832C162.706 41.584 162.97 40.488 163.498 39.544C164.042 38.6 164.778 37.864 165.706 37.336C166.65 36.792 167.746 36.52 168.994 36.52C170.258 36.52 171.362 36.792 172.306 37.336C173.25 37.864 173.978 38.6 174.49 39.544C175.018 40.488 175.282 41.584 175.282 42.832C175.282 44.064 175.018 45.168 174.49 46.144C173.978 47.104 173.25 47.864 172.306 48.424C171.362 48.968 170.258 49.24 168.994 49.24ZM168.994 47.2C169.746 47.2 170.394 47.016 170.938 46.648C171.498 46.28 171.938 45.768 172.258 45.112C172.578 44.456 172.738 43.688 172.738 42.808C172.738 41.496 172.386 40.464 171.682 39.712C170.994 38.944 170.098 38.56 168.994 38.56C167.906 38.56 167.01 38.944 166.306 39.712C165.618 40.48 165.274 41.512 165.274 42.808C165.274 43.688 165.426 44.456 165.73 45.112C166.05 45.768 166.49 46.28 167.05 46.648C167.626 47.016 168.274 47.2 168.994 47.2ZM180.108 49L176.364 36.76H178.932L181.476 46.6H181.116L184.212 36.76H186.372L189.468 46.6H189.132L191.652 36.76H194.1L190.356 49H188.172L185.076 39.328H185.436L182.292 49H180.108ZM205.991 51.64C204.359 50.152 203.151 48.52 202.367 46.744C201.599 44.968 201.215 43.16 201.215 41.32C201.215 39.512 201.607 37.72 202.391 35.944C203.175 34.152 204.375 32.504 205.991 31H208.391C206.775 32.504 205.559 34.12 204.743 35.848C203.943 37.56 203.543 39.384 203.543 41.32C203.543 43.272 203.959 45.112 204.791 46.84C205.623 48.552 206.823 50.152 208.391 51.64H205.991ZM211.292 49V31.72H213.836V49H211.292ZM212.54 41.824V39.736H222.044V41.824H212.54ZM212.54 33.808V31.72H222.692V33.808H212.54ZM230.283 49.24C229.035 49.24 227.939 48.968 226.995 48.424C226.051 47.864 225.315 47.104 224.787 46.144C224.259 45.168 223.995 44.064 223.995 42.832C223.995 41.584 224.259 40.488 224.787 39.544C225.331 38.6 226.067 37.864 226.995 37.336C227.939 36.792 229.035 36.52 230.283 36.52C231.547 36.52 232.651 36.792 233.595 37.336C234.539 37.864 235.267 38.6 235.779 39.544C236.307 40.488 236.571 41.584 236.571 42.832C236.571 44.064 236.307 45.168 235.779 46.144C235.267 47.104 234.539 47.864 233.595 48.424C232.651 48.968 231.547 49.24 230.283 49.24ZM230.283 47.2C231.035 47.2 231.683 47.016 232.227 46.648C232.787 46.28 233.227 45.768 233.547 45.112C233.867 44.456 234.027 43.688 234.027 42.808C234.027 41.496 233.675 40.464 232.971 39.712C232.283 38.944 231.387 38.56 230.283 38.56C229.195 38.56 228.299 38.944 227.595 39.712C226.907 40.48 226.563 41.512 226.563 42.808C226.563 43.688 226.715 44.456 227.019 45.112C227.339 45.768 227.779 46.28 228.339 46.648C228.915 47.016 229.563 47.2 230.283 47.2ZM239.135 49V36.76H241.511V39.808H241.631V49H239.135ZM241.631 42.616L241.319 39.712C241.607 38.672 242.103 37.88 242.807 37.336C243.511 36.792 244.351 36.52 245.327 36.52C245.695 36.52 245.951 36.552 246.095 36.616V38.968C246.015 38.936 245.903 38.92 245.759 38.92C245.615 38.904 245.439 38.896 245.231 38.896C244.031 38.896 243.127 39.208 242.519 39.832C241.927 40.456 241.631 41.384 241.631 42.616ZM260.689 49.24C259.489 49.24 258.377 49.024 257.353 48.592C256.329 48.144 255.441 47.528 254.689 46.744C253.953 45.944 253.377 45 252.961 43.912C252.545 42.824 252.337 41.632 252.337 40.336C252.337 39.04 252.537 37.856 252.937 36.784C253.353 35.696 253.929 34.76 254.665 33.976C255.417 33.176 256.305 32.56 257.329 32.128C258.353 31.696 259.465 31.48 260.665 31.48C262.009 31.48 263.217 31.752 264.289 32.296C265.361 32.824 266.233 33.576 266.905 34.552C267.593 35.528 268.017 36.664 268.177 37.96H265.681C265.473 36.6 264.921 35.544 264.025 34.792C263.145 34.024 262.033 33.64 260.689 33.64C259.553 33.64 258.545 33.92 257.665 34.48C256.801 35.024 256.129 35.8 255.649 36.808C255.169 37.8 254.929 38.976 254.929 40.336C254.929 41.68 255.169 42.864 255.649 43.888C256.145 44.896 256.825 45.68 257.689 46.24C258.553 46.8 259.553 47.08 260.689 47.08C262.033 47.08 263.153 46.704 264.049 45.952C264.961 45.184 265.513 44.12 265.705 42.76H268.225C268.049 44.072 267.617 45.216 266.929 46.192C266.241 47.152 265.361 47.904 264.289 48.448C263.233 48.976 262.033 49.24 260.689 49.24ZM270.916 49V31.72H273.412V49H270.916ZM279.604 49V41.128C279.604 40.28 279.388 39.648 278.956 39.232C278.54 38.816 277.916 38.608 277.084 38.608C276.364 38.608 275.724 38.768 275.164 39.088C274.62 39.408 274.188 39.848 273.868 40.408C273.564 40.968 273.412 41.632 273.412 42.4L273.1 39.472C273.5 38.56 274.116 37.84 274.948 37.312C275.78 36.784 276.748 36.52 277.852 36.52C279.164 36.52 280.196 36.888 280.948 37.624C281.7 38.36 282.076 39.336 282.076 40.552V49H279.604ZM285.471 49V36.76H287.847V39.808H287.967V49H285.471ZM287.967 42.616L287.655 39.712C287.943 38.672 288.439 37.88 289.143 37.336C289.847 36.792 290.687 36.52 291.663 36.52C292.031 36.52 292.287 36.552 292.431 36.616V38.968C292.351 38.936 292.239 38.92 292.095 38.92C291.951 38.904 291.775 38.896 291.567 38.896C290.367 38.896 289.463 39.208 288.855 39.832C288.263 40.456 287.967 41.384 287.967 42.616ZM299.916 49.24C298.668 49.24 297.572 48.968 296.628 48.424C295.684 47.864 294.948 47.104 294.42 46.144C293.892 45.168 293.628 44.064 293.628 42.832C293.628 41.584 293.892 40.488 294.42 39.544C294.964 38.6 295.7 37.864 296.628 37.336C297.572 36.792 298.668 36.52 299.916 36.52C301.18 36.52 302.284 36.792 303.228 37.336C304.172 37.864 304.9 38.6 305.412 39.544C305.94 40.488 306.204 41.584 306.204 42.832C306.204 44.064 305.94 45.168 305.412 46.144C304.9 47.104 304.172 47.864 303.228 48.424C302.284 48.968 301.18 49.24 299.916 49.24ZM299.916 47.2C300.668 47.2 301.316 47.016 301.86 46.648C302.42 46.28 302.86 45.768 303.18 45.112C303.5 44.456 303.66 43.688 303.66 42.808C303.66 41.496 303.308 40.464 302.604 39.712C301.916 38.944 301.02 38.56 299.916 38.56C298.828 38.56 297.932 38.944 297.228 39.712C296.54 40.48 296.196 41.512 296.196 42.808C296.196 43.688 296.348 44.456 296.652 45.112C296.972 45.768 297.412 46.28 297.972 46.648C298.548 47.016 299.196 47.2 299.916 47.2ZM308.768 49V36.76H311.144V39.64H311.264V49H308.768ZM317.024 49V41.008C317.024 40.176 316.832 39.568 316.448 39.184C316.064 38.8 315.512 38.608 314.792 38.608C314.12 38.608 313.512 38.768 312.968 39.088C312.44 39.392 312.024 39.824 311.72 40.384C311.416 40.928 311.264 41.576 311.264 42.328L310.952 39.472C311.352 38.56 311.952 37.84 312.752 37.312C313.568 36.784 314.48 36.52 315.488 36.52C316.704 36.52 317.672 36.872 318.392 37.576C319.128 38.28 319.496 39.208 319.496 40.36V49H317.024ZM325.28 49V41.008C325.28 40.176 325.08 39.568 324.68 39.184C324.296 38.8 323.744 38.608 323.024 38.608C322.368 38.608 321.768 38.768 321.224 39.088C320.696 39.392 320.272 39.824 319.952 40.384C319.648 40.928 319.496 41.576 319.496 42.328L318.992 39.472C319.408 38.56 320.032 37.84 320.864 37.312C321.712 36.784 322.656 36.52 323.696 36.52C324.928 36.52 325.912 36.88 326.648 37.6C327.384 38.304 327.752 39.248 327.752 40.432V49H325.28ZM336.384 49.24C335.152 49.24 334.064 48.968 333.12 48.424C332.192 47.88 331.464 47.128 330.936 46.168C330.408 45.208 330.144 44.104 330.144 42.856C330.144 41.592 330.4 40.488 330.912 39.544C331.44 38.584 332.176 37.84 333.12 37.312C334.064 36.784 335.144 36.52 336.36 36.52C337.544 36.52 338.568 36.776 339.432 37.288C340.312 37.784 340.984 38.48 341.448 39.376C341.928 40.272 342.168 41.336 342.168 42.568C342.168 42.76 342.16 42.944 342.144 43.12C342.144 43.28 342.128 43.448 342.096 43.624H331.824V41.752H340.344L339.72 42.496C339.72 41.184 339.424 40.184 338.832 39.496C338.24 38.808 337.416 38.464 336.36 38.464C335.224 38.464 334.32 38.856 333.648 39.64C332.992 40.408 332.664 41.48 332.664 42.856C332.664 44.248 332.992 45.336 333.648 46.12C334.32 46.904 335.248 47.296 336.432 47.296C337.152 47.296 337.776 47.152 338.304 46.864C338.832 46.56 339.224 46.12 339.48 45.544H341.832C341.432 46.696 340.752 47.6 339.792 48.256C338.848 48.912 337.712 49.24 336.384 49.24ZM344.364 30.904C345.996 32.392 347.196 34.024 347.964 35.8C348.748 37.576 349.14 39.384 349.14 41.224C349.14 43.032 348.748 44.832 347.964 46.624C347.18 48.4 345.98 50.04 344.364 51.544H341.964C343.58 50.04 344.788 48.432 345.588 46.72C346.404 44.992 346.812 43.16 346.812 41.224C346.812 39.272 346.396 37.44 345.564 35.728C344.732 34 343.532 32.392 341.964 30.904H344.364Z" fill="white"/>
<defs>
<linearGradient id="paint0_linear_40_34" x1="190" y1="0" x2="190" y2="80" gradientUnits="userSpaceOnUse">
<stop stop-color="#00B445"/>
<stop offset="1" stop-color="#006F2A"/>
</linearGradient>
<linearGradient id="paint1_linear_40_34" x1="47.0456" y1="33.6615" x2="47.0456" y2="46.4612" gradientUnits="userSpaceOnUse">
<stop stop-color="#81B4E0"/>
<stop offset="1" stop-color="#0C5A94"/>
</linearGradient>
<linearGradient id="paint2_linear_40_34" x1="47.5878" y1="22.5981" x2="47.5878" y2="36.7908" gradientUnits="userSpaceOnUse">
<stop stop-color="#F06B59"/>
<stop offset="1" stop-color="#DF2227"/>
</linearGradient>
<linearGradient id="paint3_linear_40_34" x1="33.8276" y1="52.4825" x2="41.0017" y2="40.6295" gradientUnits="userSpaceOnUse">
<stop stop-color="#388B41"/>
<stop offset="1" stop-color="#4CB749"/>
</linearGradient>
<linearGradient id="paint4_linear_40_34" x1="57.8605" y1="53.7434" x2="50.2183" y2="35.3398" gradientUnits="userSpaceOnUse">
<stop stop-color="#E4B022"/>
<stop offset="0.3" stop-color="#FCD209"/>
</linearGradient>
<linearGradient id="paint5_linear_40_34" x1="36.2026" y1="41.9379" x2="36.2026" y2="29.4611" gradientUnits="userSpaceOnUse">
<stop stop-opacity="0.15"/>
<stop offset="0.3" stop-opacity="0.06"/>
<stop offset="1" stop-opacity="0.03"/>
</linearGradient>
<linearGradient id="paint6_linear_40_34" x1="53.4242" y1="45.967" x2="44.8464" y2="54.7009" gradientUnits="userSpaceOnUse">
<stop stop-opacity="0.15"/>
<stop offset="0.3" stop-opacity="0.06"/>
<stop offset="1" stop-opacity="0.03"/>
</linearGradient>
<linearGradient id="paint7_linear_40_34" x1="53.2999" y1="48.4808" x2="54.5478" y2="36.1592" gradientUnits="userSpaceOnUse">
<stop stop-opacity="0.15"/>
<stop offset="0.3" stop-opacity="0.06"/>
<stop offset="1" stop-opacity="0.03"/>
</linearGradient>
<clipPath id="clip0_40_34">
<rect width="36" height="36" fill="white" transform="translate(29 22)"/>
</clipPath>
</defs>
</svg>
