<svg xmlns="http://www.w3.org/2000/svg" fill="none" viewBox="0 0 143 44"><path fill="#fff" d="M58.22 6.769h-3.613v15.243h-3.35V6.77h-3.614V3.826h10.58v2.943zM63.128 3.826v7.514H66.9V3.826h3.35v18.188H66.9v-7.73h-3.772v7.73h-3.35V3.826zM72.572 22.012V3.826h9.603v2.943h-6.253v4.523h4.643v2.943h-4.643v4.834h6.253v2.943zM106.05 22.012h-4.221L99.744 9.52l-2.083 12.492h-4.22L89.614 3.824h3.403l2.48 13.138 2.4-13.138h3.694l2.4 13.138 2.48-13.138h3.403zM116.893 18.088h-4.115l-.897 3.924h-3.429L113.2 3.824h3.271l4.749 18.188h-3.429zm-.659-2.943-1.399-6.127-1.399 6.127h2.798M131.904 22.012h-9.206V3.826h3.376v15.243h5.83zM142.668 22.012h-9.207V3.826h3.377v15.243h5.83zM38.583 0h-9.385c-.58 0-1.056.426-1.056.958v3.69h-2.58V.957c0-.532-.47-.958-1.055-.958h-9.379c-.585 0-1.055.426-1.055.958v3.69h-2.58V.957c0-.532-.475-.958-1.056-.958H1.056C.475 0 0 .426 0 .958v32.75c0 .359.221.684.569.851l9.379 4.45 9.378 4.45q.014.007.026.009a1 1 0 0 0 .096.038c.036.015.08.029.122.033q.05.014.106.02.072.008.142.009.07-.001.141-.01.183-.02.348-.1l.058-.028 9.32-4.421 9.386-4.45c.348-.167.564-.492.564-.851V.958C39.635.426 39.16 0 38.58 0zm-1.056 33.127-7.274 3.45V1.915h7.274zm-9.383 4.456-7.27 3.45V6.561h7.27zM2.11 1.913h7.273v34.665l-7.273-3.45zm16.654 39.12-7.27-3.45V6.561h7.27zm-2.58-39.12h7.269v2.733h-7.27z"/><path fill="#fff" d="M5.748 3.996c-.807 0-1.46.593-1.46 1.324s.653 1.325 1.46 1.325 1.46-.593 1.46-1.325c0-.731-.653-1.324-1.46-1.324M33.892 6.645c.806 0 1.46-.593 1.46-1.325 0-.731-.654-1.324-1.46-1.324-.807 0-1.46.593-1.46 1.324s.653 1.325 1.46 1.325M15.128 8.73c-.806 0-1.46.593-1.46 1.325 0 .731.654 1.324 1.46 1.324.807 0 1.46-.593 1.46-1.324s-.653-1.325-1.46-1.325M24.51 8.73c-.807 0-1.46.593-1.46 1.325 0 .731.653 1.324 1.46 1.324s1.46-.593 1.46-1.324-.653-1.325-1.46-1.325"/></svg>