<svg width="143" height="44" viewBox="0 0 143 44" fill="none" xmlns="http://www.w3.org/2000/svg">
<path d="M58.2207 6.76899H54.6068V22.0123H51.2569V6.76899H47.6431V3.82597H58.2223V6.76899H58.2207Z" fill="white"/>
<path d="M63.1278 3.82582V11.3397H66.8999V3.82582H70.2499V22.0136H66.8999V14.2842H63.1278V22.0136H59.7778V3.82582H63.1278Z" fill="white"/>
<path d="M72.572 22.0121V3.82582H82.1748V6.76884H75.922V11.2919H80.565V14.2349H75.922V19.0691H82.1748V22.0121H72.572Z" fill="white"/>
<path d="M106.05 22.0121H101.829L99.7444 9.52035L97.6613 22.0121H93.4404L89.6155 3.82433H93.0182L95.4989 16.9624L97.8988 3.82433H101.592L103.992 16.9624L106.472 3.82433H109.875L106.05 22.0121Z" fill="white"/>
<path d="M116.893 18.0876H112.778L111.881 22.0121H108.452L113.2 3.82433H116.471L121.22 22.0121H117.791L116.893 18.0876ZM116.234 15.1446L114.835 9.01763L113.436 15.1446H116.232H116.234Z" fill="white"/>
<path d="M131.904 22.0121H122.698V3.82582H126.074V19.0691H131.904V22.0121Z" fill="white"/>
<path d="M142.668 22.0121H133.461V3.82582H136.838V19.0691H142.668V22.0121Z" fill="white"/>
<path d="M50.7077 27.8293V31.3812H51.7534V32.1862H48.6838V31.3812H49.7213V27.8293H48.6838V27.0243H51.7534V27.8293H50.7077Z" fill="white"/>
<path d="M56.3701 30.5913V31.5548L55.6675 32.1847H53.2824L52.6128 31.5847L53.2066 31.0461L53.6997 31.5009H55.1809L55.4316 31.2735V30.8486L55.2386 30.6661L53.3814 30.5524L52.7629 29.9913V29.0801L53.4573 28.4502H55.6411L56.2761 29.0188L55.6823 29.5574L55.2221 29.1325H53.9422L53.6997 29.3599V29.7399L53.8927 29.915L55.75 30.0287L56.3685 30.5898L56.3701 30.5913Z" fill="white"/>
<path d="M60.0004 28.4517V29.2641H59.0124L58.3856 29.8327V32.1847H57.4487V28.4517H58.285L58.318 29.1953L59.1377 28.4517H59.9987H60.0004Z" fill="white"/>
<path d="M64.4092 29.119V32.1847H63.5729L63.5482 31.5099L62.8043 32.1847H61.366L60.6716 31.5548V30.6212L61.2902 30.0601L63.474 29.9239V29.4227L63.1556 29.1339H61.8839L61.3479 29.6202L60.7624 29.0816L61.4567 28.4517H63.6735L64.4092 29.119ZM63.4723 30.8725V30.5838L61.8163 30.6825L61.6068 30.88V31.2675L61.8576 31.5024H62.7862L63.4723 30.8725Z" fill="white"/>
<path d="M69.3377 29.2402V30.6062H66.4925V31.1449L66.885 31.5009H68.1814L68.7587 30.9773L69.336 31.5084L68.5921 32.1832H66.4248L65.554 31.3947V29.2402L66.4248 28.4502H68.4668L69.3377 29.2402ZM68.4008 29.9539V29.4916L68.0083 29.1355H66.8867L66.4941 29.4916V29.9539H68.4008Z" fill="white"/>
<path d="M72.1482 31.4635V32.1847H71.2113L70.4246 31.471V26.7206H71.3614V31.1897L71.6633 31.4635H72.1482Z" fill="white"/>
<path d="M73.1016 26.767H74.0384V27.6707H73.1016V26.767ZM73.1016 28.4517H74.0384V32.1847H73.1016V28.4517Z" fill="white"/>
<path d="M84.5615 27.0243L82.988 32.1847H82.0429L80.9131 28.4891L79.7832 32.1847H78.8299L77.2563 27.0243H78.2773L79.3725 30.7888L80.5189 27.0243H81.3386L82.4849 30.7888L83.5802 27.0243H84.5582H84.5615Z" fill="white"/>
<path d="M88.9458 29.2402V30.6062H86.1006V31.1449L86.4932 31.5009H87.7896L88.3669 30.9773L88.9442 31.5084L88.2003 32.1832H86.033L85.1621 31.3947V29.2402L86.033 28.4502H88.0749L88.9458 29.2402ZM88.009 29.9539V29.4916L87.6164 29.1355H86.4948L86.1023 29.4916V29.9539H88.009Z" fill="white"/>
<path d="M93.8396 29.2402V31.1374L92.685 32.1847H90.1086V26.7206H91.0455V29.1265L91.7894 28.4517H92.9687L93.8396 29.2417V29.2402ZM92.9027 30.88V29.5678L92.459 29.1654H91.7729L91.0455 29.8252V31.465H92.2578L92.9027 30.88Z" fill="white"/>
<path d="M98.4397 30.5913V31.5548L97.7371 32.1847H95.352L94.6824 31.5847L95.2762 31.0461L95.7693 31.5009H97.2505L97.5012 31.2735V30.8486L97.3082 30.6661L95.451 30.5524L94.8325 29.9913V29.0801L95.5269 28.4502H97.7107L98.3457 29.0188L97.7519 29.5574L97.2917 29.1325H96.0118L95.7693 29.3599V29.7399L95.9623 29.915L97.8195 30.0287L98.4381 30.5898L98.4397 30.5913Z" fill="white"/>
<path d="M99.5183 26.767H100.455V27.6707H99.5183V26.767ZM99.5183 28.4517H100.455V32.1847H99.5183V28.4517Z" fill="white"/>
<path d="M103.317 29.1654V31.1164L103.71 31.465H104.579V32.1862H103.207L102.379 31.4426V29.1654H101.409V28.4517H102.43L102.588 27.0243H103.315V28.4517H104.579V29.1654H103.315H103.317Z" fill="white"/>
<path d="M109.281 29.2402V30.6062H106.436V31.1449L106.829 31.5009H108.125L108.702 30.9773L109.28 31.5084L108.536 32.1832H106.368L105.498 31.3947V29.2402L106.368 28.4502H108.41L109.281 29.2402ZM108.344 29.9539V29.4916L107.952 29.1355H106.83L106.438 29.4916V29.9539H108.344Z" fill="white"/>
<path d="M117.405 30.2202V31.3513L116.484 32.1862H112.729V27.0258H116.318L117.238 27.8607V29.0217L116.661 29.5454L117.405 30.2202ZM113.715 29.1878H115.823L116.25 28.8078V28.1779L115.857 27.8293H113.717V29.1878H113.715ZM116.418 31.0311V30.485L115.874 29.9838H113.715V31.3798H116.024L116.417 31.0311H116.418Z" fill="white"/>
<path d="M120.258 31.4635V32.1847H119.321L118.534 31.471V26.7206H119.471V31.1897L119.773 31.4635H120.258Z" fill="white"/>
<path d="M124.833 29.2402V31.3947L123.963 32.1832H121.93L121.06 31.3947V29.2402L121.93 28.4502H123.963L124.833 29.2402ZM123.897 31.1149V29.5215L123.512 29.1654H122.382L121.998 29.5215V31.1149L122.382 31.4635H123.512L123.897 31.1149Z" fill="white"/>
<path d="M129.501 31.5174L128.766 32.1847H126.758L125.887 31.3962V29.2417L126.758 28.4517H128.724L129.46 29.119L128.858 29.6651L128.314 29.1639H127.209L126.824 29.52V31.1134L127.209 31.462H128.355L128.899 30.9683L129.501 31.5144V31.5174Z" fill="white"/>
<path d="M133.107 32.1847L131.391 30.4551V32.1847H130.455V26.7206H131.391V30.1274L133.056 28.4502H134.202L132.386 30.2561L134.327 32.1832H133.105L133.107 32.1847Z" fill="white"/>
<path d="M138.687 29.2402V30.6062H135.842V31.1449L136.234 31.5009H137.531L138.108 30.9773L138.685 31.5084L137.941 32.1832H135.774L134.903 31.3947V29.2402L135.774 28.4502H137.816L138.687 29.2402ZM137.75 29.9539V29.4916L137.357 29.1355H136.236L135.843 29.4916V29.9539H137.75Z" fill="white"/>
<path d="M142.393 28.4517V29.2641H141.405L140.778 29.8327V32.1847H139.841V28.4517H140.678L140.711 29.1953L141.53 28.4517H142.391H142.393Z" fill="white"/>
<path d="M38.5828 0H29.1977C28.6171 0 28.1421 0.426417 28.1421 0.957567V4.64719H25.5624V0.957567C25.5624 0.426417 25.0923 0 24.5068 0H15.1283C14.5428 0 14.0727 0.426417 14.0727 0.957567V4.64719H11.493V0.957567C11.493 0.426417 11.018 0 10.4374 0H1.05562C0.475028 0 0 0.426417 0 0.957567V33.7079C0 34.0669 0.22102 34.3916 0.569043 34.5592L9.94754 39.0089L19.326 43.4586C19.3359 43.4631 19.3425 43.4676 19.3524 43.4676C19.3838 43.4825 19.4151 43.496 19.4481 43.5065C19.4844 43.5214 19.5273 43.5349 19.5701 43.5394C19.6015 43.5483 19.6394 43.5543 19.6757 43.5588C19.7235 43.5633 19.7714 43.5678 19.8176 43.5678C19.8637 43.5678 19.9132 43.5633 19.9594 43.5588C20.0815 43.5439 20.1969 43.5109 20.3074 43.4586L20.3652 43.4301L29.6859 39.0089L39.071 34.5592C39.419 34.3916 39.6351 34.0669 39.6351 33.7079V0.957567C39.6351 0.426417 39.1601 0 38.5795 0H38.5828ZM37.5272 33.1273L30.2533 36.5776V1.91364H37.5272V33.1273ZM28.1437 37.583L20.8748 41.0332V6.56083H28.1437V37.583ZM2.10958 1.91364H9.38344V36.5776L2.10958 33.1273V1.91364ZM18.7636 41.0332L11.4947 37.583V6.56083H18.7636V41.0332ZM16.1839 1.91364H23.4528V4.6457H16.1839V1.91364Z" fill="white"/>
<path d="M5.74805 3.99635C4.94149 3.99635 4.28833 4.58884 4.28833 5.32048C4.28833 6.05212 4.94149 6.64462 5.74805 6.64462C6.55461 6.64462 7.20777 6.05212 7.20777 5.32048C7.20777 4.58884 6.55461 3.99635 5.74805 3.99635Z" fill="white"/>
<path d="M33.8918 6.64462C34.6984 6.64462 35.3516 6.05212 35.3516 5.32048C35.3516 4.58884 34.6984 3.99635 33.8918 3.99635C33.0853 3.99635 32.4321 4.58884 32.4321 5.32048C32.4321 6.05212 33.0853 6.64462 33.8918 6.64462Z" fill="white"/>
<path d="M15.1284 8.73032C14.3219 8.73032 13.6687 9.32282 13.6687 10.0545C13.6687 10.7861 14.3219 11.3786 15.1284 11.3786C15.935 11.3786 16.5881 10.7861 16.5881 10.0545C16.5881 9.32282 15.935 8.73032 15.1284 8.73032Z" fill="white"/>
<path d="M24.51 8.73032C23.7035 8.73032 23.0503 9.32282 23.0503 10.0545C23.0503 10.7861 23.7035 11.3786 24.51 11.3786C25.3166 11.3786 25.9697 10.7861 25.9697 10.0545C25.9697 9.32282 25.3166 8.73032 24.51 8.73032Z" fill="white"/>
</svg>
