<svg xmlns="http://www.w3.org/2000/svg" fill="none" viewBox="0 0 96 96"><path fill="#ffe1cd" fill-rule="evenodd" d="M51.764 37.856a25.3 25.3 0 0 0 5.68 1.92 51.7 51.7 0 0 0 16.96.8 40.4 40.4 0 0 0 16.28-5.48 9.44 9.44 0 0 0 4.24-7.08 10.24 10.24 0 0 0-2.68-8 11.6 11.6 0 0 0-3.28-2.32 20 20 0 0 0-2.64-.8 15.3 15.3 0 0 0-2.68-7.68 17.44 17.44 0 0 0-7.64-6.08 16.6 16.6 0 0 0-10.04-.72 17.08 17.08 0 0 0-11.4 9.6 12 12 0 0 0-.88 5.44 11.44 11.44 0 0 0-6.44 7 11.76 11.76 0 0 0 1 10.68 9.7 9.7 0 0 0 3.52 2.72m-1.52-12.64a8.8 8.8 0 0 1 4-5.2 12 12 0 0 0 3.76 5.64 1.28 1.28 0 0 0 1.72-1.64 8.6 8.6 0 0 1-1.76-10.4 13.12 13.12 0 0 1 9.04-6.32 12.68 12.68 0 0 1 8.56.72 13.7 13.7 0 0 1 4.68 4 11.12 11.12 0 0 1 0 13.8 1.44 1.44 0 1 0 2.16 1.88 14 14 0 0 0 3.72-7.68l.72.24c1.12.5 2.112 1.24 2.92 2.16a6.4 6.4 0 0 1 1.44 5.08 5.36 5.36 0 0 1-2.72 4 37.6 37.6 0 0 1-14.6 4.24 52.4 52.4 0 0 1-15.52-.44 20 20 0 0 1-4.8-1.24 5.6 5.6 0 0 1-2.2-1.48 8 8 0 0 1-1.12-7.36m45.28 57.524a2.52 2.52 0 0 0-1.36-1.4c-.72 0-10.64-1.24-13.4-1.32h-13.28l-8.44.32c-2.28 0-11.64.92-12.68 1.04s-2.12 4.44-2.12 4.48a5.5 5.5 0 0 0 .76 3.52 7.6 7.6 0 0 0 2.96 2.88c.32.28 16 1.6 17 1.68 3.52.24 7.12 0 10.72 0l4.92-.44c3.76-.44 7.48-.96 11.24-1.48 1 0 .24 0 2.64-2.6q.593-.6.96-1.36.38-.76.52-1.6a9.2 9.2 0 0 0-.44-3.72m-4 2.64c-.28.48-.44 1-.68 1.52q-.44 1.195-1.04 2.32h-24.56c-5.16 0-10.24.24-15.44.4l-.36-.88a8 8 0 0 1 0-1.4c0-.44 0-.88-.24-1.32s-.4-1.4-.56-2.08l19.16.84c2.52 0 5 0 7.44-.2 3.72-.2 7.36-.52 11.04-.6h6.16q-.564.665-1.04 1.4zm-39.76-9.6V65.3q.06-.656.24-1.28s0-.24.2-.32c.4 0 1.04 0 1.24-.24q1.291-.465 2.64-.68c1.48-.28 3.04-.4 4.52-.56 4.708-.618 9.452-.926 14.2-.92q4.74.005 9.44.56c1.4 0 3.04 0 4.64.4v11.48c0 1.96.24 2.52.32 4.44a1.76 1.76 0 0 0 3.24.56c.4-2.08.76-2.8 1-4.92v-3.36c.02-1.125-.06-2.25-.24-3.36-1.44-10.2-2.96-7.36-8.6-8.6a73 73 0 0 0-12.6-1.44 96 96 0 0 0-12.36.4c-1.6.2-3.28.32-4.92.68q-1.795.335-3.48 1.04-1.14.44-2.16 1.12a3.32 3.32 0 0 0-1.36 1.68c-.3.82-.45 1.687-.44 2.56q.24 2.355.72 4.68c.2 2.32.48 4.6.8 6.88 0 1.32 0 1.32.44 2.64s3.16 1.2 2.92 0q-.3-1.467-.4-2.96" clip-rule="evenodd"/><path fill="#ffe1cd" fill-rule="evenodd" d="M52.008 63.74a.5.5 0 0 0 0 .28zM40.96 18.256a18.8 18.8 0 0 0-10.04.8 18.4 18.4 0 0 0-4 1.92 15.6 15.6 0 0 0-3.24 3.04 12.24 12.24 0 0 0-3.12 9.84 1.24 1.24 0 0 0 1.32 1.2 1.28 1.28 0 0 0 1.2-1.28 10 10 0 0 1 4-6.56 28 28 0 0 1 2.68-2.04 31 31 0 0 1 3-1.8 16.8 16.8 0 0 1 8-2.12 1.4 1.4 0 0 0 1.6-1.24 1.44 1.44 0 0 0-1.4-1.76M37.4 81.06h-5.12a10.4 10.4 0 0 1-2.96-.56 12.4 12.4 0 0 1-4.36-1.8 10 10 0 0 1-3.28-2.88A36 36 0 0 1 20 72.26c0-1.48-3.16-1.04-2.96 1.32.064 1.728.6 3.4 1.56 4.84 1.332 2.04 3.2 3.68 5.4 4.72a15.8 15.8 0 0 0 4.4 1.4c1.332.16 2.676.16 4 0 1.76 0 3.48-.48 5.24-.72a1.4 1.4 0 0 0 1.4-1.48 1.44 1.44 0 0 0-1.64-1.28" clip-rule="evenodd"/><path fill="#ffe1cd" fill-rule="evenodd" d="M23.2 69.096c6.6-1.08 13.28-4.28 13.36-5.48.4-3 .8-5.92.96-8.88v-4q0-2.005-.28-4c0-1.36-.52-2.68-.8-4a6.4 6.4 0 0 0 .56-3.2 7.6 7.6 0 0 0-2.92-5.16 10.4 10.4 0 0 0-3.76-1.8 32 32 0 0 0-5.48-.6 1.44 1.44 0 0 0-1.56 1.28 1.48 1.48 0 0 0 1.32 1.56q2.468.36 4.8 1.2c.96.22 1.856.676 2.6 1.32a4 4 0 0 1 1.12 1.88v2.16a3.6 3.6 0 0 1-.96 1.12 10 10 0 0 1-4.6 1.76c-2.816.428-5.68.52-8.52.28a36 36 0 0 1-8-1.08 7.6 7.6 0 0 1-4-2.16c-1.2-1.44 0-2.64 1.48-3.64a20 20 0 0 1 6.28-2.84h3.48a1.24 1.24 0 0 0 1.36-1.12 1.28 1.28 0 0 0-1.12-1.68h-4a19.52 19.52 0 0 0-11.16 5.08 5.44 5.44 0 0 0-1.28 3.28 42.4 42.4 0 0 0-1.8 6.8 32 32 0 0 0-.28 4c0 1.28 0 2.56.2 4q.468 4.065 1.4 8.04a.8.8 0 0 0 0 .32c0 1.2 9.2 4.4 11.36 5 3.36.736 6.82.924 10.24.56M4.84 45.336a14.4 14.4 0 0 0 4.4 2.6 36 36 0 0 0 9.32 1.4c3.226.234 6.468.032 9.64-.6 1.588-.39 3.11-1.01 4.52-1.84v1.72c0 1.48 0 2.96.2 4.44-2.504.78-5.1 1.224-7.72 1.32a52 52 0 0 1-6.56-.28c-2.28 0-4.52-.32-6.72-.68a41 41 0 0 1-5.08-.8 20 20 0 0 1-2.04-.6v-4c0-1.4.08-1.8.04-2.68m8.96 18.68a49 49 0 0 1-9.28-1.92c0-2.36 0-4.8.2-7.24.36 0 .64.4 1 .56a41.6 41.6 0 0 0 5.28 1.96q2.345.72 4.76 1.12c2.433.39 4.903.497 7.36.32a28.8 28.8 0 0 0 9.96-2.8c.2 2.2.44 4.4.56 6.6h-.32a34.8 34.8 0 0 1-10.48 1.76h-4.52z" clip-rule="evenodd"/></svg>