<svg xmlns="http://www.w3.org/2000/svg" fill="none" viewBox="0 0 96 96"><g clip-path="url(#a)"><path fill="#b72b00" fill-rule="evenodd" d="M45.092 33.388c-9.144-2.212-15.18 2.188-11.76 12.016 2.184 6.2 16.248 45.996 23.944 49.86a9 9 0 0 0 10.272-2.26 60 60 0 0 0 5.148-14.612c1.788-7.696-.824-5.024 9.068-8.596 5.84-2.104 12.532-4.292 13.728-10.38a6.44 6.44 0 0 0-3.54-7.224 215.2 215.2 0 0 0-46.86-18.804m45.212 21.676c3.932 2.368.972 7.04-3.84 8.764-20.24 7.232-15.3 1.936-18.264 13.464a67 67 0 0 1-4.464 12.56 3.88 3.88 0 0 1-4.54.72c-4.784-3.296-18.548-39.692-21.112-46.856-1.712-4.736-.888-7.144 5.888-5.604A212 212 0 0 1 90.3 55.104v-.032zM1.472 26.232a51.2 51.2 0 0 0 18.82 7.188 1.668 1.668 0 0 0 1.056-3.164 69 69 0 0 0-10.876-5.06c-12.168-4.48-10.68.46-9 1.036m26.336-24.46c-1.492 26.772 5.36 23.388 5.36 20.632.3-7.05-.45-14.106-2.224-20.936a1.577 1.577 0 1 0-3.136.304m26.184-.252a55.6 55.6 0 0 0-7.168 20.68 1.663 1.663 0 0 0 1.7 2.192 1.68 1.68 0 0 0 1.468-1.136 64.8 64.8 0 0 0 6.976-20.628 1.589 1.589 0 1 0-2.972-1.104m4.736 31.156A58.8 58.8 0 0 0 77.82 22.34a1.66 1.66 0 1 0-1.44-2.992 68 68 0 0 0-18.912 10.464 1.576 1.576 0 0 0 .129 2.816c.358.16.763.175 1.135.052M2.792 58.296a98.4 98.4 0 0 0 20.216-11.36c2.248-1.056 2.692-9.92-21.792 8.624a1.58 1.58 0 0 0 1.576 2.736M24 81.44a80.8 80.8 0 0 0 7.876-21.52c1.4-3.388-5.208-7.108-10.844 20.456a1.575 1.575 0 0 0 1.56 2.107A1.575 1.575 0 0 0 24 81.44" clip-rule="evenodd"/></g><defs><clipPath id="a"><path fill="#fff" d="M0 0h96v96H0z"/></clipPath></defs></svg>