<svg xmlns="http://www.w3.org/2000/svg" fill="none" viewBox="0 0 96 96"><g fill="#ffe1cd" fill-rule="evenodd" clip-path="url(#a)" clip-rule="evenodd"><path d="M39.432 59.04c10.28 3.56 24.488 0 29.732-11.684A22.657 22.657 0 0 0 44.836 16.06a22.64 22.64 0 0 0-18.932 19.292c-.76 6.2 1 15.084 6.6 18.728a1.212 1.212 0 0 0 1.36-2c-4.52-3.16-5.64-11.008-4.72-16.288a18.967 18.967 0 0 1 35.534-5.11 18.97 18.97 0 0 1 .886 15.23c-4 9.968-16.408 13.448-25.292 10.688a1.36 1.36 0 0 0-.84 2.44"/><path d="M94.576 23.264c-.52-4.4-.28-13.084-3.68-15.488-7.648-5.44-24.256-3.96-35.256-4.36-14.048-.48-28.576.64-42.5 1a1.36 1.36 0 1 0 0 2.68c13.884-.2 28.252-1.04 42.34-.32 9.92.52 26.692-.52 33.052 4 1.52 1.16 1.56 9.768 1.88 12.808A140 140 0 0 1 90.692 56a47.8 47.8 0 0 1-1.76 10.564c-9.8 5.12-78.996 8.724-83.04 2.24A69.2 69.2 0 0 1 3.332 52.2a240 240 0 0 1 2.4-43.384 1.245 1.245 0 0 0-1.76-1.76c-1.56 1.56-1.24 6.564-1.52 8.284a176 176 0 0 0-2.08 40.74 59.5 59.5 0 0 0 2.44 14.728c3.36 5.64 25.252 5.84 32.016 5.88a17.2 17.2 0 0 0-3.56 12.008c-3.08 0-5.964.4-8.644.64a1.2 1.2 0 1 0 0 2.36c8 .28 14.164 1.08 24.012 1 9.84-.08 16.284-.92 24.288-1.52a1.36 1.36 0 0 0 0-2.68h-7.36a35.2 35.2 0 0 0-4.004-12.608c5.28-.4 30.212-2.12 33.176-6.52a34.8 34.8 0 0 0 2.56-12.648 136 136 0 0 0-.72-33.456M60.48 88.496c-10.964-.24-16.768-.36-26.212 0 .64-1.56 1.56-3.6 2.04-5.16q.867-3.255 1.2-6.608c0-.52-.96.44 18.732-.76a27.2 27.2 0 0 0 4.24 12.528"/><path d="M55.52 34.548a6.89 6.89 0 0 0-8.004-8c-6.964.92-8.284 9.76-4 9.24a1.165 1.165 0 0 0 .48-2.28 2.12 2.12 0 0 1 .72-1.68 4 4 0 0 1 5.84 0c1.48 1.6 0 3.56-1.8 5.84-.56.68-2.96 2.684-2.76 4.204.28 2.48 4 2.08 3.56 0 .72-.44 1.48-1.72 1.76-1.96a14 14 0 0 0 4.2-5.36m-7.764 10.964c-3.48-.28-4.84 6.4.28 6.04.84 0 2.12-.32 2.64-1.44a2.88 2.88 0 0 0 .2-2.4 4 4 0 0 0-3.12-2.2"/></g><defs><clipPath id="a"><path fill="#fff" d="M0 0h96v96H0z"/></clipPath></defs></svg>