<svg xmlns="http://www.w3.org/2000/svg" fill="none" viewBox="0 0 96 96"><g fill="#ffe1cd" clip-path="url(#a)"><path d="M73.152 46.732a30.8 30.8 0 0 0-5.224-14.988A26.8 26.8 0 0 0 38.784 20.86a27.48 27.48 0 0 0-21.048 22.604c-.3 2.103-.3 4.237 0 6.34a14.5 14.5 0 0 0 2.352 6.1c2.192 3.108 5.58 3.984 7.296 6.416.664.94.96 2.088.84 3.232a1.08 1.08 0 0 0 .992 1.156h1.12a67 67 0 0 0 8.688 1.792q1.884.24 3.788.24H46.6c2.908 0 5.78-.56 8.732-.96a1.24 1.24 0 1 0-.12-2.468l-8.612-.48H30.412c0-1.32-.4-2.616-1.156-3.708-1.632-2.352-4.944-3.428-7.016-6.536a12 12 0 0 1-1.636-5.024c-.25-1.867-.222-3.76.08-5.62a24.2 24.2 0 0 1 19.02-19.256A22.96 22.96 0 0 1 64.5 34.096a26.8 26.8 0 0 1 4.544 12.88 15.68 15.68 0 0 1-3.988 12.276 24 24 0 0 1-1.912 1.716c-1.796 1.392-3.588 2.508-5.344 3.984a5.6 5.6 0 0 0-1.392 2.312 34 34 0 0 0-.88 3.988c-.04.92-.344 1.8-.876 2.552a12.8 12.8 0 0 1-8.932 3.068 40.8 40.8 0 0 1-14.508-3.148c.36-.64 0-2.592 0-3.788a1.28 1.28 0 0 0-1.32-1.196 1.24 1.24 0 0 0-1.152 1.316c0 1.596-.28 3.628 0 4.504a1.72 1.72 0 0 0 .996 1.24A43.9 43.9 0 0 0 46 79.784a15.72 15.72 0 0 0 11.16-3.668 5.54 5.54 0 0 0 1.4-2.232q.624-1.96.956-3.988c-.02-.704.132-1.4.44-2.032 1.752-1.516 3.508-2.512 5.26-3.988a18 18 0 0 0 2.312-2.032 19.36 19.36 0 0 0 5.624-15.112"/><path d="M38.784 55.904c.24-2.312.4-4.664.6-6.976a9.4 9.4 0 0 0 2.112 1.632 7.5 7.5 0 0 0 4.268 1.16 8.5 8.5 0 0 0 3.984-1.12v3.308q-.02 3.896.64 7.736c0 .84 1.992 1.356 2.392 0a41.7 41.7 0 0 1 0-7.736 80 80 0 0 1 2.352-10.36 1.76 1.76 0 0 0-.8-2.08 1.8 1.8 0 0 0-2.432.24q-.243.293-.4.64l-.436.88-.96 1.552a6.4 6.4 0 0 1-2.028 1.832 4.56 4.56 0 0 1-2.392.72 4 4 0 0 1-2.512-.92 6.96 6.96 0 0 1-2.076-2.388l-.716-1.796c0-.36-.28-1.236-.36-1.476a2 2 0 0 0-1.592-.796 1.84 1.84 0 0 0-1.796.52c-1.276 1.352-.28 9.008-.84 17.9a12 12 0 0 1 0 2.588c0 1.68 1.88 2.156 2.316.4.424-1.788.648-3.62.676-5.46M12.392 24.728a12 12 0 0 0-1.632-1.636l-1.836-1.356c-1.476-.956-3.028-1.712-4.584-2.592a1.28 1.28 0 0 0-1.756.28 1.24 1.24 0 0 0 .28 1.716c1.2 1.236 2.352 2.472 3.588 3.668.52.52 1.04 1.036 1.556 1.472.52.44 1.076.92 1.636 1.36a46 46 0 0 1 3.984 3.028 1.08 1.08 0 0 0 1.516 0 1.08 1.08 0 0 0 .2-1.556 23.2 23.2 0 0 0-2.952-4.384M28.26 6.948q.3 1.1.76 2.152c.28.68.556 1.356.916 2.032.836 1.556 1.832 2.952 2.708 4.544a1.12 1.12 0 0 0 2.076-.756 48 48 0 0 0-1.08-5.304 24 24 0 0 0-.756-2.152 16 16 0 0 0-.84-2.032C31.016 3.836 30.06 2.4 29.14.848a1.24 1.24 0 0 0-1.632-.76 1.24 1.24 0 0 0-.68 1.596c.48 1.872.88 3.588 1.44 5.264M58.04 17.432a1.08 1.08 0 0 0 1.2-.96 49 49 0 0 0 1.472-4.424c.2-.876.28-1.792.4-2.668.035-1.34.182-2.673.44-3.988a1.31 1.31 0 0 0-.48-1.796 1.32 1.32 0 0 0-1.796.48 17.2 17.2 0 0 0-2.032 3.988q-.3.9-.48 1.832-.06.94 0 1.876c0 1.512.32 2.868.44 4.224a1.16 1.16 0 0 0 .836 1.436m34.288 12.556c-1.876 0-3.628-.28-5.464-.28h-2.352c-.76 0-1.556.28-2.312.48a31.4 31.4 0 0 0-5.144 2.272 1.12 1.12 0 1 0 .72 2.076c1.792-.28 3.468-.28 5.18-.4l2.156-.24 2.192-.4c1.712-.36 3.388-.796 5.18-1.156a1.32 1.32 0 0 0 1.16-1.352 1.24 1.24 0 0 0-1.32-1m-40.66 54.02q-1.995.124-3.988 0c-1.28 0-2.552-.2-3.988-.28l-3.984-.2c-2.632 0-5.224 0-7.976-.28a1.12 1.12 0 0 0-1.316.84 1.12 1.12 0 0 0 .84 1.32 41.6 41.6 0 0 0 6.896 2.068q1.544.28 3.108.32 1.556.12 3.112 0a42.6 42.6 0 0 0 7.612-1.316 1.28 1.28 0 0 0 1.04-1.436 1.24 1.24 0 0 0-1.36-1.036m-4.3 8.056a32 32 0 0 1-3.988-.36 20 20 0 0 0-2.632 0c-1.596 0-3.072.4-4.624.56a1.08 1.08 0 0 0-1.2.956 1.2 1.2 0 0 0 1 1.236q2.016.772 4.104 1.312.887.16 1.796.2a14 14 0 0 0 1.832 0A16.8 16.8 0 0 0 48 94.496a1.244 1.244 0 0 0-.52-2.432z"/></g><defs><clipPath id="a"><path fill="#fff" d="M0 0h96v96H0z"/></clipPath></defs></svg>