<svg xmlns="http://www.w3.org/2000/svg" fill="none" viewBox="0 0 96 96"><path fill="#ffe1cd" fill-rule="evenodd" d="M10.628 8.7a83 83 0 0 1 11.624-1.52c5.912-.4 11.984-.36 17.78-.28 5.792.08 10.704 0 15.98 0 3.592 0 7.148 0 10.704.28 5.712.24 11.468.72 17.26 1.32v13.104c0 2.76.24 5.472.4 8.228.2 4 .48 8.272.48 12.424a1.48 1.48 0 1 0 2.916 0c.56-3.992 1.04-7.988 1.2-12.304q.144-2.655 0-5.312 0-2.64-.36-5.272c-.48-4-1.36-7.992-2.24-11.988a3.12 3.12 0 0 0-1.68-1.76 240 240 0 0 0-26.724-3.312c-5.912-.36-11.944-.36-17.896-.24-5.956.12-11.988.72-18.18 1.6A96 96 0 0 0 9.908 6.184a1.32 1.32 0 0 0-.704 2.04 1.28 1.28 0 0 0 1.424.476M95.76 60.596a40 40 0 0 0-.6-7.032 8 8 0 0 0-1.84-3.756 6.96 6.96 0 0 0-2.792-1.6 32 32 0 0 0-5.316-.956 62 62 0 0 0-8.188 0 96 96 0 0 0-11.984 1.56 1.08 1.08 0 0 0-.64.4.96.96 0 0 0-.68-.36 1.24 1.24 0 0 0-1.4 1.12 176 176 0 0 0-2.276 23.968q-.02 8.132.88 16.22a2.56 2.56 0 0 0 1.36 1.916q1.064.468 2.196.76l5.152.84c4.584.44 9.2.44 13.784 0a32.8 32.8 0 0 0 9.108-2.28 1.4 1.4 0 0 0 .84-1.88 1.48 1.48 0 0 0 1.48-1.236A114 114 0 0 0 96 74.456c0-4.632 0-9.308-.24-13.86m-12.624 29.64c-4.364.049-8.723-.3-13.024-1.04l-4.276-.916h-.24c-.36-3.356-.52-6.792-.68-10.268s-.44-7.988-.44-11.984c0-5.072 0-10.068.36-14.94.2 0 .36.2.56 0 3.226-.339 6.468-.499 9.712-.48 3.164.008 6.32.332 9.428.96q2.025.304 3.992.88a3.2 3.2 0 0 1 1.44.64c.42.668.656 1.44.68 2.232.28 2 .28 4.24.44 5.516.52 5.312.96 10.784 1.12 16.26 0 3.636 0 7.228-.2 10.784a1.4 1.4 0 0 0 .2.8 1.04 1.04 0 0 0-.6 0 28.4 28.4 0 0 1-8.472 1.556" clip-rule="evenodd"/><path fill="#ffe1cd" fill-rule="evenodd" d="M15.34 28.316q-.06.5 0 1a8 8 0 0 0 0 1.04c.96 3.672 1.64 3.792 2.32 3.792s1.396 0 2.316-3.996a4 4 0 0 0 0-1 2.8 2.8 0 0 0 0-1c-1.08-3.992-2.2-3.632-2.28-3.632-1.08.08-2.236 3.516-2.356 3.796m58.328 2.036q.06-.52 0-1.04a2.8 2.8 0 0 0 0-1c0-.396-1.28-3.712-2.44-3.632 0 0-1.156-.4-2.236 3.636q-.06.5 0 1-.06.496 0 1c.92 3.712 1.6 3.992 2.28 3.992s1.44-.28 2.396-3.956M23.132 39.38l-4-1.956a1.28 1.28 0 0 0-2.392.88 4.28 4.28 0 0 0 1.08 3.196c.301.39.7.694 1.156.88.409.214.86.337 1.32.36a7.05 7.05 0 0 0 2.876-.44 1.48 1.48 0 0 0 1.36-2.048 1.44 1.44 0 0 0-1.4-.872M65.92 42.3a7 7 0 0 0 2.872.44 2.96 2.96 0 0 0 1.32-.36c.475-.174.891-.48 1.2-.88a4.47 4.47 0 0 0 1.08-3.2 1.296 1.296 0 0 0-2.44-.876l-3.996 1.96a1.48 1.48 0 0 0-1.48 1.436 1.52 1.52 0 0 0 1.444 1.48M20.096 14.652c-.46.024-.911.146-1.32.36a2.8 2.8 0 0 0-1 1.04c-1.04 1.28-1.676 3.992-.32 4.672a1.24 1.24 0 0 0 1.64-.68l3.996-1.956a1.44 1.44 0 0 0 1.48-1.44c.04-1.956-3.56-2.036-4.48-1.996m45.828 3.356s3.992 1.92 3.992 1.96a1.297 1.297 0 0 0 2.44-.88 4.4 4.4 0 0 0-1.08-3.2 2.7 2.7 0 0 0-1.2-.876 2.96 2.96 0 0 0-1.32-.36 7 7 0 0 0-2.876.44 1.52 1.52 0 0 0-1.48 1.48 1.467 1.467 0 0 0 1.524 1.436m-9.432-3.716a12 12 0 0 0-2.476 0s-5.512.8-5.432 2.52c0 .48-.2 1.24 4.832 2.236q.78.088 1.56 0h1.56c5.472-.88 5.112-2.04 5.112-2.52s-.48-1.516-5.156-2.236m-12.984 2.16c0-.96-.44-1.44-5.112-2.16-.825-.08-1.655-.08-2.48 0 0 0-5.512.8-5.432 2.52 0 .48 0 1.236 4.836 2.236q.78.088 1.56 0h1.556c5.632-.96 5.112-2.116 5.072-2.596m17.1 24.088c0-.92-.44-1.44-5.112-2.12a10.4 10.4 0 0 0-2.48 0s-5.552.76-5.432 2.52c0 .44-.2 1.2 4.836 2.2a7.3 7.3 0 0 0 1.56 0h1.556c5.472-.96 5.112-2.08 5.072-2.6m-18.096 0c0-.92-.44-1.44-5.156-2.12-.809-.1-1.627-.1-2.436 0 0 0-5.552.76-5.472 2.52 0 .44 0 1.2 4.872 2.2a7 7 0 0 0 1.52 0q.8.06 1.6 0c5.432-.96 5.112-2.08 5.072-2.6" clip-rule="evenodd"/><path fill="#ffe1cd" fill-rule="evenodd" d="M74.468 58.56a8.8 8.8 0 0 0-3.76-.6 3.28 3.28 0 0 0-1.992.96 4 4 0 0 0-.68 4.592 1.28 1.28 0 0 0 .816 1.192 1.2 1.2 0 0 0 .5.084c1.96 0-.68-1.476 5.316-3.316a1.48 1.48 0 0 0 1.36-1.476 1.392 1.392 0 0 0-1.56-1.44m12.424.004a4.4 4.4 0 0 0-2.72-.64c-1.063.23-2.104.55-3.112.96a1.28 1.28 0 1 0-.16 2.556c5.072 2.156 4.872 1.2 5.352 2.156a1.4 1.4 0 0 0 1.64 1.2 1.48 1.48 0 0 0 1.24-1.64 4.36 4.36 0 0 0-2.24-4.596m-17.42 17.82a3.2 3.2 0 0 0 1.84.44 14.5 14.5 0 0 0 2.996-.64 1.48 1.48 0 0 0 0-2.92c-1.96-.596-2.88 0-3.48-2.312a1.276 1.276 0 0 0-2.072-1.156 1.32 1.32 0 0 0-.48.876c-.24.44-.4.88-.64 1.4s0 .876-.24 1.356a3.44 3.44 0 0 0 2.076 2.956m11.188-.12q1.368.672 2.836 1.08a4.03 4.03 0 0 0 2.4-.28c1.792-.8 3.152-2.04 2.712-4.276a1.44 1.44 0 0 0-1.28-1.6c-1.476 0 0 1.16-3.752 2q-1.496.14-2.96.48a1.315 1.315 0 0 0 0 2.596zm-24.372-16.26c-6.032-.52-11.984-1.08-18.176-1.36-2.6 0-5.152-.24-7.788-.28h-7.792c-5.912 0-11.784.6-17.736.92V48.372c0-2.96 0-5.956.32-8.912s.36-5.952.6-8.948A148.5 148.5 0 0 1 8.668 9.82a1.44 1.44 0 0 0-1-1.76A1.44 1.44 0 0 0 5.912 9.1 140 140 0 0 0 1.2 30.072C.76 33.112.48 36.024.12 39.22a89 89 0 0 0 0 9.232c0 .52 1.2 22.848 3.996 22.728 1.84 0 3.716 0 5.552.28 4.436.36 8.828 1.04 13.184 1.52 2.56 0 5.112.24 7.708.36l-3.472 6.632q-.703 1.3-1.24 2.676a2.48 2.48 0 0 0 .76 2.916 8.34 8.34 0 0 0 3.436 1.36c2.174.256 4.364.35 6.552.28h16.696c.76 0 2.92-1.8 2.68-2.8q.12-1.995 0-3.992a8 8 0 0 0-.32-1.6 10.4 10.4 0 0 0-.6-1.56 22.4 22.4 0 0 0-2.04-3.392 1.44 1.44 0 0 0-2.66-.12 1.48 1.48 0 0 0-.056 1.12c.2 1.276.2 2.432.36 3.712q.052.795.28 1.56.18.765.52 1.48.632 1.32 1.48 2.512c-3.16-.48-6.356-.92-9.552-1.28-2.236-.24-4.512-.4-6.748-.556H30.96a4 4 0 0 1 0-.76l2.48-7.988h2.316c6.592 0 13.144-.36 19.736-.92a1.48 1.48 0 0 0 0-2.92c-3.24 0-6.472 0-9.708-.276-3.24-.28-7.592-.52-11.348-.72s-7.588-.32-11.424-.48-7.592 0-11.388 0c-2.116 0-3.992 0-6.272.36-.2-2.2-.28-4.392-.36-6.592 5.876.4 11.668.88 17.54 1.16 2.6 0 5.192 0 7.988.2h7.512c6.032 0 11.984-.28 18.136-.32a1.48 1.48 0 0 0 0-2.92z" clip-rule="evenodd"/></svg>