<svg xmlns="http://www.w3.org/2000/svg" fill="none" viewBox="0 0 96 96"><g fill="#b72b00" fill-rule="evenodd" clip-rule="evenodd" opacity=".9"><path d="M59.108 45.08a1.24 1.24 0 0 0 1.08-1.4 9.2 9.2 0 0 1 1.6-5.236q1.5-2.256 3.36-4.236a74 74 0 0 1 5.712-5.916q1.84.408 3.72.48a1.12 1.12 0 0 0 0-2.2c-7.12-.72-10.236-5.352-9.836-9.948a9.84 9.84 0 0 1 10.632-8.596 8.8 8.8 0 0 1 8.956 8.396 9.12 9.12 0 0 1-7.2 10.712 1.25 1.25 0 0 0 .32 2.48c1.4-.128 2.756-.52 4-1.16a26.6 26.6 0 0 1 2.68 3.556q.72 1.08 1.32 2.16c.44.756.88 1.516 1.276 2.276q1.456 2.836 2.44 5.876a1.2 1.2 0 0 0 1.44.96 1.24 1.24 0 0 0 .996-1.44 29.2 29.2 0 0 0-1.24-6.916 14.8 14.8 0 0 0-1.16-2.92 16 16 0 0 0-1.84-2.556 17.6 17.6 0 0 0-3.392-2.68 13.56 13.56 0 0 0 3.996-10.748A12.507 12.507 0 0 0 75.256 3.632a13.55 13.55 0 0 0-13.948 12.792 11.6 11.6 0 0 0 6.676 10.832 28 28 0 0 0-4.8 3.156 18.4 18.4 0 0 0-3.636 4.2A12.24 12.24 0 0 0 57.708 44a1.2 1.2 0 0 0 1.4 1.08m-25.42 34.132a16 16 0 0 0-1.68-2.52 16.8 16.8 0 0 0-3.396-2.796 13.52 13.52 0 0 0 4-10.672A12.467 12.467 0 0 0 19.736 50.8 13.48 13.48 0 0 0 5.788 63.548 11.6 11.6 0 0 0 12.42 74.38a28 28 0 0 0-4.796 3.16 18.4 18.4 0 0 0-3.596 4.196 12.24 12.24 0 0 0-1.84 9.432 1.2 1.2 0 0 0 1.4 1.04 1.24 1.24 0 0 0 1.08-1.4 9.2 9.2 0 0 1 1.6-5.236 32.3 32.3 0 0 1 3.356-4.24 81 81 0 0 1 5.716-5.912q1.829.465 3.72.48a1.12 1.12 0 0 0 0-2.2c-7.04-.72-10.076-5.356-9.676-9.952a9.84 9.84 0 0 1 10.632-8.752 8.8 8.8 0 0 1 8.792 8.552 9.12 9.12 0 0 1-7.152 10.712 1.24 1.24 0 0 0-1.1 1.38 1.24 1.24 0 0 0 1.38 1.1 10.9 10.9 0 0 0 3.996-1.16 27 27 0 0 1 2.68 3.56q.716 1.06 1.316 2.196c.44.72.88 1.48 1.28 2.24a40 40 0 0 1 2.44 5.872 1.24 1.24 0 0 0 2.356-.48 29.2 29.2 0 0 0-1.24-6.912c-.269-.979-.63-1.93-1.08-2.84M7.192 41.08a26.8 26.8 0 0 0 16.304 5c8.2-.236 16.381-.93 24.504-2.08a1.08 1.08 0 0 0 1.04-1.2 1.08 1.08 0 0 0-1.16-1 225 225 0 0 1-23.984 1.4 23.44 23.44 0 0 1-14.068-4.796 18.92 18.92 0 0 1-5.796-14.388 21.44 21.44 0 0 1 4.88-14.668 13.92 13.92 0 0 1 8.832-4 20.6 20.6 0 0 1 10.272 1.44 12 12 0 0 1 6.832 7.36c1.92 5.512 1.44 12.188 3.68 17.544a13.6 13.6 0 0 0 4.276 5.516 40 40 0 0 0 8.472 4.916 1.24 1.24 0 0 0 1.68-.56 1.32 1.32 0 0 0-.56-1.56 39.2 39.2 0 0 1-7.996-4.796 11.44 11.44 0 0 1-3.316-4.48c-2.28-6.712-1.08-14.704-4.24-20.74a15.36 15.36 0 0 0-7.388-6.716 24.8 24.8 0 0 0-11.988-2 18.4 18.4 0 0 0-11.632 5.16 25.52 25.52 0 0 0-5.8 17.584A22.704 22.704 0 0 0 7.192 41.08m82.972 14.112a18 18 0 0 0-11.508-5.156 24.4 24.4 0 0 0-11.992 2 15.12 15.12 0 0 0-7.396 6.672c-3.316 6.08-1.96 14.192-4.396 20.664a11.36 11.36 0 0 1-3.436 4.6 39.2 39.2 0 0 1-7.992 4.836 1.28 1.28 0 0 0-.56 1.68 1.32 1.32 0 0 0 1.68.556 41.6 41.6 0 0 0 8.472-4.956 13.86 13.86 0 0 0 4.276-5.476c2.24-5.396 1.76-11.992 3.68-17.588a12 12 0 0 1 6.992-7.512 20.6 20.6 0 0 1 10.152-1.4 13.92 13.92 0 0 1 8.832 4A21.48 21.48 0 0 1 91.964 72.7a19.04 19.04 0 0 1-5.356 14.268 23.4 23.4 0 0 1-14.068 4.756 208 208 0 0 1-23.98-1.4 1.12 1.12 0 1 0 0 2.2 220 220 0 0 0 24.38 2.28 26.8 26.8 0 0 0 16.308-5A22.72 22.72 0 0 0 95.96 72.78a25.36 25.36 0 0 0-5.796-17.588"/><path d="M17.94 18.54h9.156a1.276 1.276 0 0 0 .4-2.52c-1.68-.52-3.32-1.036-5.04-1.396a13.6 13.6 0 0 0-2.24-.28q-1.137-.09-2.276 0a27 27 0 0 0-5.196 1.24 1.08 1.08 0 0 0-.72 1.44 1.12 1.12 0 0 0 1.24.96c1.48.04 3.04.4 4.68.56m50.96 48.84h9.152c1.64 0 3.196-.52 4.916-.6a1.12 1.12 0 1 0 .28-2.2 26.4 26.4 0 0 0-5.2-1.24c-.757-.06-1.519-.06-2.276 0q-1.128.077-2.24.28a46 46 0 0 0-5.032 1.44 1.28 1.28 0 0 0-1.04 1.44 1.24 1.24 0 0 0 1.44.88M10.988 29.612a1.08 1.08 0 0 0 1.32.8h8.032l2.4-.24 5.712-.72a1.24 1.24 0 0 0 .08-2.48 57 57 0 0 0-5.876-.76 20 20 0 0 0-2.556 0c-.848.025-1.692.133-2.52.32a30.4 30.4 0 0 0-5.552 1.76 1.12 1.12 0 0 0-1.04 1.32m55.276 47.324a1.24 1.24 0 0 0 1.32 1.2l5.676.72 2.4.24h8.032a1.12 1.12 0 0 0 1.196-1.668 1.08 1.08 0 0 0-.68-.492 30.4 30.4 0 0 0-5.752-1.84c-.84 0-1.68-.24-2.56-.32s-1.68 0-2.52 0q-2.956.22-5.872.76a1.28 1.28 0 0 0-1.24 1.4"/></g></svg>