<?xml version="1.0" encoding="UTF-8" standalone="no"?>
<!-- Created with Inkscape (http://www.inkscape.org/) -->

<svg
   width="167.40269mm"
   height="99.99826mm"
   viewBox="0 0 167.40269 99.99826"
   version="1.1"
   id="svg1"
   inkscape:version="1.4.2 (ebf0e940d0, 2025-05-08)"
   sodipodi:docname="Logo of NSO Group.svg"
   xmlns:inkscape="http://www.inkscape.org/namespaces/inkscape"
   xmlns:sodipodi="http://sodipodi.sourceforge.net/DTD/sodipodi-0.dtd"
   xmlns="http://www.w3.org/2000/svg"
   xmlns:svg="http://www.w3.org/2000/svg">
  <sodipodi:namedview
     id="namedview1"
     pagecolor="#ffffff"
     bordercolor="#000000"
     borderopacity="0.25"
     inkscape:showpageshadow="2"
     inkscape:pageopacity="0.0"
     inkscape:pagecheckerboard="0"
     inkscape:deskcolor="#d1d1d1"
     inkscape:document-units="mm"
     inkscape:zoom="0.94423894"
     inkscape:cx="217.10606"
     inkscape:cy="70.956616"
     inkscape:window-width="1870"
     inkscape:window-height="1011"
     inkscape:window-x="0"
     inkscape:window-y="0"
     inkscape:window-maximized="1"
     inkscape:current-layer="layer1" />
  <defs
     id="defs1">
    <clipPath
       id="clip-0">
      <path
         clip-rule="nonzero"
         d="m 65,39 h 56 V 67 H 65 Z m 0,0"
         id="path111" />
    </clipPath>
    <clipPath
       id="clip-1">
      <path
         clip-rule="nonzero"
         d="m 92.992188,39.835938 -4.058594,4.085937 h 0.02734 c 0.632812,-0.210937 1.316406,-0.316406 2.054687,-0.316406 l 6.695313,-0.0039 -3.636719,-3.769531 C 93.871094,39.660156 93.679688,39.570312 93.5,39.570312 c -0.183594,0 -0.347656,0.08984 -0.507812,0.265626 m 17.683592,1.8125 c -2.94922,0 -5.46094,1.039062 -7.53515,3.113281 -0.23047,0.210937 -0.44922,0.445312 -0.66016,0.710937 l 3.34766,3.292969 c 0.19531,-0.246094 0.40625,-0.464844 0.63671,-0.660156 1.15625,-1.175781 2.5625,-1.765625 4.21485,-1.765625 1.63281,0 3.01953,0.589844 4.16406,1.765625 0.14063,0.08594 0.28125,0.230469 0.42188,0.421875 0.89453,1.050781 1.34375,2.300781 1.34375,3.738281 0,1.65625 -0.58594,3.058594 -1.76563,4.21875 -1.14062,1.144531 -2.52734,1.714844 -4.16016,1.714844 -0.66796,0 -1.28515,-0.07031 -1.84765,-0.210938 -0.75391,-0.226562 -1.4336,-0.613281 -2.03125,-1.15625 l -3.21094,3.320313 c 1.125,1.085937 2.40625,1.835937 3.84766,2.238281 1.01953,0.351563 2.10156,0.527344 3.24218,0.527344 2.91407,0 5.39063,-1.066407 7.42969,-3.191407 1.30469,-1.25 2.20703,-2.679687 2.70313,-4.285156 V 49.09375 c -0.39844,-1.292969 -1.05469,-2.472656 -1.96875,-3.546875 -0.17578,-0.230469 -0.42188,-0.492187 -0.73828,-0.789063 -2.03516,-2.070312 -4.51172,-3.109374 -7.42579,-3.109374 z M 68.21875,44.53125 c -1.894531,1.863281 -2.84375,4.105469 -2.84375,6.722656 0,2.632813 0.949219,4.898438 2.847656,6.800782 0.191406,0.15625 0.378906,0.332031 0.554688,0.523437 0.121094,0.08984 0.210937,0.175781 0.261718,0.265625 0.08984,0.140625 0.34375,0.414062 0.765626,0.816406 0.632812,0.667969 1.617187,1.722656 2.953124,3.164063 l 5.636719,-0.0039 0.183594,-0.210937 -8.0625,-8.300781 c -0.617187,-0.894532 -0.921875,-1.914063 -0.921875,-3.054688 0,-1.460937 0.507812,-2.734375 1.523438,-3.824218 1.089843,-1.019532 2.355468,-1.527344 3.796874,-1.527344 1.492188,0 2.539063,0.277344 3.136719,0.839844 0.125,0.125 0.238281,0.238281 0.34375,0.34375 0.101563,0.07031 0.640625,0.613281 1.609375,1.632812 l 0.605469,0.605469 2.949219,-2.925781 -1.53125,-1.503907 c -0.06641,-0.101562 -0.164063,-0.226562 -0.285156,-0.367187 -0.230469,-0.210938 -0.457032,-0.414063 -0.6875,-0.605469 -0.28125,-0.210937 -0.535157,-0.40625 -0.765626,-0.578125 -1.546874,-1.089844 -3.339843,-1.632812 -5.378906,-1.632812 -2.597656,0 -4.828125,0.941406 -6.691406,2.820312 m 11.886719,8.246094 c -0.316407,0.351562 -0.289063,0.703125 0.08203,1.054687 l 5.058594,5.109375 h 10.859375 c 0.5625,0 1.003906,-0.15625 1.320312,-0.476562 0.367188,-0.386719 0.550781,-0.832032 0.550781,-1.34375 0,-0.546875 -0.183593,-0.988282 -0.550781,-1.34375 -0.320312,-0.332032 -0.757812,-0.5 -1.320312,-0.5 l -5.085938,1.03125 c -1.773437,0 -3.257812,-0.625 -4.453125,-1.871094 -1.285156,-1.265625 -1.925781,-2.75 -1.925781,-4.453125 0,-0.753906 0.113281,-1.441406 0.339844,-2.054687 z m 10.914062,-4.640625 c -0.492187,0 -0.953125,0.175781 -1.375,0.527343 -0.332031,0.367188 -0.5,0.808594 -0.5,1.320313 0.0039,0.488281 0.167969,0.910156 0.5,1.261719 0.425781,0.40625 0.882813,0.605468 1.375,0.605468 h 0.472657 l 4.613281,-1.132812 c 1.757812,0 3.242187,0.628906 4.453121,1.894531 1.26563,1.25 1.89844,2.75 1.89844,4.507813 0.004,0.4375 -0.0273,0.851562 -0.0781,1.238281 l 4.50781,-4.53125 c 0.34766,-0.351563 0.34766,-0.707031 0,-1.058594 l -4.61719,-4.636719 z m 5.085938,15.3125 h -6.375 L 93,66.71875 c 0.05469,0.05078 0.101562,0.09375 0.15625,0.128906 0.246094,0.175782 0.5,0.175782 0.765625,0 0.05078,-0.03516 0.105469,-0.07813 0.160156,-0.128906 l 3.34375,-3.375 c -0.4375,0.07031 -0.878906,0.105469 -1.320312,0.105469"
         id="path112" />
    </clipPath>
    <clipPath
       id="clip-2">
      <path
         clip-rule="nonzero"
         d="m 68,67 h 52 v 6 H 68 Z m 0,0"
         id="path113" />
    </clipPath>
    <clipPath
       id="clip-3">
      <path
         clip-rule="nonzero"
         d="m 114.60938,67.65625 0.004,5.175781 h 1.52735 v -1.511719 h 1.60546 c 0.56641,0 1.03125,-0.171874 1.39844,-0.523437 0.35156,-0.355469 0.54297,-0.722656 0.58203,-1.109375 0.0156,-0.05078 0.0234,-0.113281 0.0234,-0.183594 0,-0.476562 -0.20312,-0.90625 -0.60547,-1.289062 -0.37109,-0.371094 -0.83594,-0.558594 -1.39844,-0.558594 z m 1.53125,1.375 1.60546,-0.0039 c 0.16016,0 0.27344,0.0625 0.34375,0.1875 0.0859,0.05078 0.13282,0.148437 0.13282,0.289062 0,0.07031 -0.008,0.132813 -0.0234,0.183594 -0.0391,0.05078 -0.0703,0.105469 -0.10938,0.160156 -0.0703,0.07031 -0.18359,0.105469 -0.34375,0.105469 h -1.60546 z m -3.76954,-1.371094 v 3.503906 c 0,0.265626 -0.0625,0.511719 -0.18359,0.742188 -0.24609,0.136719 -0.50781,0.207031 -0.79297,0.207031 -0.29687,0 -0.55859,-0.07031 -0.78906,-0.207031 -0.17578,-0.230469 -0.26172,-0.476562 -0.26172,-0.742188 v -3.503906 h -1.50391 v 3.507813 c 0,0.660156 0.20313,1.214843 0.61719,1.664062 h 3.8125 c 0.49219,-0.449219 0.73828,-1.003906 0.73828,-1.667969 v -3.503906 z m -7.64453,0.0039 c -0.92968,0 -1.71093,0.296876 -2.34375,0.894532 -0.40625,0.351562 -0.6875,0.730468 -0.84375,1.132812 -0.10547,0.28125 -0.15625,0.582032 -0.15625,0.898438 0,0.824218 0.33203,1.527344 1,2.109375 0.0508,0.04297 0.10157,0.08984 0.15625,0.132812 h 4.29297 c 0.0547,-0.04297 0.10938,-0.08984 0.16406,-0.136719 0.63282,-0.578124 0.94922,-1.28125 0.94922,-2.109374 0,-0.316407 -0.0547,-0.613282 -0.16015,-0.894532 -0.14063,-0.40625 -0.40625,-0.78125 -0.78907,-1.132812 -0.66796,-0.597656 -1.42187,-0.894532 -2.26171,-0.894532 z m -1.28906,4.003907 c -0.35156,-0.28125 -0.52734,-0.640625 -0.52734,-1.078125 0,-0.316406 0.11718,-0.617188 0.34375,-0.898438 0.0508,-0.07031 0.11328,-0.132812 0.18359,-0.183594 0.33594,-0.316406 0.76172,-0.472656 1.28906,-0.476562 0.42188,0 0.79297,0.160156 1.10938,0.476562 0.0898,0.05078 0.15625,0.113282 0.21094,0.183594 0.26171,0.28125 0.39453,0.578125 0.39453,0.894532 0,0.441406 -0.20313,0.800781 -0.60547,1.082031 -0.31641,0.296875 -0.6836,0.449219 -1.10547,0.449219 h -0.008 c -0.52735,0 -0.94922,-0.152344 -1.28516,-0.449219 m -7.933594,-4.003907 v 5.167969 H 97.0625 v -1.503906 h 1.527344 c 0.15625,0 0.277344,0.03516 0.367187,0.105469 0.08594,0.08984 0.128907,0.191406 0.128907,0.316406 v 1.082031 h 1.585942 V 71.75 c 0,-0.492188 -0.17969,-0.878906 -0.52735,-1.160156 0.29688,-0.230469 0.47266,-0.527344 0.52735,-0.898438 v -0.183594 c 0,-0.472656 -0.21485,-0.902343 -0.63672,-1.289062 -0.386722,-0.371094 -0.867191,-0.554688 -1.445316,-0.554688 z m 1.554688,1.371094 h 1.53125 c 0.15625,0 0.277344,0.0625 0.367187,0.183594 0.08594,0.05469 0.128907,0.152344 0.128907,0.289062 0,0.07031 -0.01563,0.132813 -0.05078,0.183594 -0.01953,0.05469 -0.04297,0.109375 -0.07813,0.160156 -0.08984,0.07031 -0.210937,0.105469 -0.367187,0.105469 H 97.0625 Z m -5.957032,-1.371094 c -0.402343,0 -0.738281,0.125 -1,0.371094 C 89.785156,68.300781 89.625,68.613281 89.625,68.984375 l 0.0039,3.292969 c 0,0.203125 0.04687,0.386718 0.136719,0.554687 h 5.027344 v -2.875 h -2.871094 v 1.371094 h 1.367187 v 0.792969 h -1.554687 c -0.175781,0 -0.296875,-0.02734 -0.367187,-0.08203 -0.08984,-0.08594 -0.128907,-0.183593 -0.128907,-0.285156 l -0.0039,-2.242187 c 0,-0.140625 0.04297,-0.238281 0.132813,-0.289063 0.07031,-0.125 0.191406,-0.1875 0.367187,-0.1875 h 3.058594 V 67.664064 Z M 81.085748,68.5664 c -0.382813,0.347656 -0.667969,0.726563 -0.84375,1.132813 -0.101563,0.28125 -0.15625,0.578125 -0.15625,0.894531 0,0.828125 0.335937,1.527344 1,2.109375 0.05078,0.04297 0.09766,0.08594 0.148437,0.128906 h 4.308594 c 0.05078,-0.04297 0.105469,-0.08594 0.15625,-0.128906 0.632812,-0.582031 0.949219,-1.285156 0.949219,-2.109375 0,-0.316406 -0.05078,-0.617188 -0.15625,-0.898438 -0.160157,-0.402343 -0.425782,-0.78125 -0.792969,-1.128906 -0.667969,-0.601562 -1.460938,-0.898437 -2.371094,-0.898437 -0.863281,0 -1.609375,0.300781 -2.242187,0.898437 m 1.082031,3.109375 c -0.316407,-0.28125 -0.472657,-0.640625 -0.476563,-1.082031 0,-0.316406 0.109375,-0.613281 0.316406,-0.898438 0.03516,-0.06641 0.08984,-0.128906 0.160157,-0.183593 0.335937,-0.316407 0.71875,-0.472657 1.160156,-0.472657 0.507813,0 0.921875,0.15625 1.238281,0.472657 0.07031,0.05469 0.128906,0.113281 0.183594,0.183593 0.230469,0.28125 0.34375,0.582032 0.34375,0.898438 0,0.4375 -0.175781,0.800781 -0.527344,1.082031 -0.316406,0.296875 -0.730468,0.445313 -1.238281,0.445313 h -0.0078 c -0.433593,0 -0.820312,-0.148438 -1.152343,-0.445313 M 69.359375,68.355469 c -0.4375,0.371093 -0.695313,0.816406 -0.765625,1.34375 -0.01563,0.109375 -0.02344,0.222656 -0.02344,0.347656 v 2.15625 l 0.6875,0.628906 h 0.8125 v -2.785156 c 0,-0.125 0.02734,-0.238281 0.07813,-0.347656 0.05469,-0.105469 0.140624,-0.203125 0.265624,-0.289063 0.226563,-0.246094 0.457032,-0.367187 0.683594,-0.367187 0.300782,0 0.5625,0.121093 0.792969,0.367187 0.105469,0.08594 0.183594,0.183594 0.234375,0.289063 0.03516,0.105469 0.05469,0.222656 0.05469,0.34375 v 2.789062 h 1.554687 v -2.789062 c 0,-0.121094 -0.0078,-0.238281 -0.02734,-0.34375 -0.08984,-0.527344 -0.34375,-0.972657 -0.765625,-1.34375 -0.453125,-0.453125 -1.070312,-0.683594 -1.84375,-0.683594 -0.6875,0 -1.261718,0.230469 -1.738281,0.683594 m 6.695313,-0.527344 c -0.230469,0 -0.457032,0.04297 -0.6875,0.132813 -0.226563,0.08594 -0.457032,0.246093 -0.683594,0.472656 -0.246094,0.175781 -0.414063,0.414062 -0.503906,0.710937 C 74.058594,69.339844 74,69.523438 74,69.699219 c 0,0.511719 0.226562,0.914062 0.683594,1.210937 0.332031,0.386719 0.789062,0.582032 1.371094,0.582032 l 1.660156,-0.316407 c 0.175781,0 0.296875,0.05078 0.367187,0.15625 0.140625,0.105469 0.210938,0.246094 0.210938,0.421875 0,0.140625 -0.07031,0.253906 -0.207031,0.34375 -0.07422,0.125 -0.195313,0.183594 -0.371094,0.183594 H 74 l 0.636719,0.550781 h 4.667969 c 0.148437,-0.148437 0.257812,-0.320312 0.332031,-0.523437 0.03516,-0.195313 0.05469,-0.378906 0.05469,-0.554688 0,-0.511718 -0.195312,-0.941406 -0.582031,-1.289062 -0.351563,-0.335938 -0.816406,-0.5 -1.394531,-0.5 l -1.476563,0.234375 h -0.183593 c -0.179688,0 -0.308594,-0.03516 -0.398438,-0.105469 -0.136719,-0.08594 -0.210938,-0.21875 -0.210938,-0.394531 0,-0.140625 0.07422,-0.289063 0.210938,-0.445313 0.08984,-0.05469 0.21875,-0.08203 0.398438,-0.08203 h 3.636718 l -1.398437,-1.34375 z m 0,0"
         id="path114" />
    </clipPath>
  </defs>
  <g
     inkscape:label="Layer 1"
     inkscape:groupmode="layer"
     id="layer1"
     transform="translate(-20.372913,-91.810421)">
    <g
       id="g1"
       style="fill:#040606;fill-opacity:1">
      <path
         fill-rule="nonzero"
         fill="#ffffff"
         fill-opacity="1"
         d="M 112.43074,159.88383 H 93.324572 l 9.788198,9.78818 c 0.15673,0.15672 0.31351,0.28753 0.47023,0.3918 0.74021,0.53146 1.50655,0.53146 2.29901,0 0.15672,-0.10427 0.31351,-0.23508 0.47023,-0.3918 l 10.02333,-10.11041 c -1.31496,0.21739 -2.62994,0.32229 -3.94489,0.32229"
         id="path72"
         style="fill:#040606;fill-opacity:1;stroke-width:2.22935" />
      <path
         fill-rule="nonzero"
         fill="#ffffff"
         fill-opacity="1"
         d="m 97.182383,115.74105 c -1.036312,0 -2.011649,0.26124 -2.93473,0.77503 -0.400587,0.21783 -2.438347,1.07985 -2.673473,4.75476 -0.09587,1.47173 0.505047,2.73445 1.506545,3.78815 1.262724,1.21047 2.621218,1.82006 4.101658,1.82006 0,0 1.323674,0.0177 2.525422,-0.27868 1.210465,-0.29607 11.495065,-2.82153 11.495065,-2.82153 0,0 1.54139,-0.36577 3.72717,-0.148 4.19745,0.4093 7.79401,2.35126 10.83323,5.5211 3.78815,3.73589 5.68656,8.23812 5.68656,13.50668 0,1.31498 -0.0785,2.55156 -0.23514,3.70978 l 13.49799,-13.58505 c 1.05372,-1.05373 1.05372,-2.10745 0,-3.16115 l -13.8202,-13.88986 z m 0,0"
         id="path73"
         style="fill:#040606;fill-opacity:1;stroke-width:2.22935" />
      <path
         fill-rule="nonzero"
         fill="#ffffff"
         fill-opacity="1"
         d="m 64.491123,129.64832 c -0.940492,1.0537 -0.862106,2.10742 0.243865,3.16114 l 15.16128,15.30928 32.525772,-0.006 c 1.68944,0 3.0044,-0.47901 3.95362,-1.42818 1.09725,-1.15822 1.65459,-2.49926 1.65459,-4.02325 0,-1.63717 -0.55731,-2.96956 -1.66329,-4.03197 -0.94924,-0.99275 -2.26419,-1.49783 -3.94492,-1.48914 l -13.175753,2.66476 c 0,0 -1.39334,0.47894 -3.6314,0.35704 -4.632848,-0.25252 -8.551635,-2.1858 -11.773727,-5.54723 -3.840382,-3.78815 -5.764949,-8.22942 -5.764949,-13.33252 0,-2.27289 1.027591,-6.16553 1.027591,-6.16553 z m 0,0"
         id="path74"
         style="fill:#040606;fill-opacity:1;stroke-width:2.22935" />
      <path
         fill-rule="nonzero"
         fill="#ffffff"
         fill-opacity="1"
         d="M 103.09536,92.602887 90.93848,104.83815 h 0.07823 c 1.898418,-0.62701 3.953607,-0.94921 6.156822,-0.94921 H 117.22892 L 106.32604,92.602887 c -0.60084,-0.531209 -1.17562,-0.792466 -1.71554,-0.792466 -0.53993,0 -1.04501,0.261244 -1.51527,0.792466"
         id="path75"
         style="fill:#040606;fill-opacity:1;stroke-width:2.22935" />
      <path
         fill-rule="nonzero"
         fill="#ffffff"
         fill-opacity="1"
         d="m 156.6867,191.80868 h -0.86213 c -3.9623,0 -7.1757,-3.22207 -7.1757,-7.17568 v -10.27591 h 4.57191 V 184.633 c 0,0.58328 0.2002,1.1756 0.53121,1.67199 0.47023,0.70543 1.14081,1.18438 2.33384,1.21048 1.18434,0.0253 2.08131,-0.42656 2.56027,-1.0537 0.39186,-0.52261 0.63572,-1.17566 0.63572,-1.82877 v -10.27591 h 4.58058 V 184.633 c 0,3.95361 -3.22209,7.17568 -7.1757,7.17568"
         id="path76"
         style="fill:#040606;fill-opacity:1;stroke-width:2.22935" />
      <path
         fill-rule="nonzero"
         fill="#ffffff"
         fill-opacity="1"
         d="m 53.083169,174.39197 c -7.24537,0.76629 -7.794008,10.16267 -0.339668,11.05093 0.21783,0.0253 0.714105,0.10427 1.349805,-0.0442 1.915853,-0.44425 5.651744,-1.74169 6.078436,0.47016 0.02591,0.13082 0.05245,0.51377 -0.0436,0.77508 -0.235144,0.64439 -0.923081,1.23658 -1.680701,1.2453 H 47.161385 c 2.699578,2.40346 4.55448,3.91872 4.55448,3.91872 h 4.789588 c 0,0 2.499317,0.006 2.769269,-0.019 6.722883,-0.63573 6.888318,-10.62424 -0.296064,-10.93768 -0.03476,0 -0.156721,-0.006 -0.18282,-0.006 -0.191478,0.006 -0.592191,0.0379 -0.809875,0.0695 -0.940517,0.14787 -3.065346,0.48785 -4.058118,0.63573 -0.766341,0.11312 -1.227878,-0.0253 -1.506551,-0.15672 -0.827286,-0.40065 -0.975336,-1.32367 -0.566029,-2.2729 0.156721,-0.38296 0.670545,-0.74019 1.323675,-0.72282 0.08714,0 11.268623,0.0442 11.268623,0.0442 l -4.240975,-4.07551 h -6.557416 c 0,0 -0.461569,0.006 -0.566028,0.0253"
         id="path77"
         style="fill:#040606;fill-opacity:1;stroke-width:2.22935" />
      <path
         fill-rule="nonzero"
         fill="#ffffff"
         fill-opacity="1"
         d="m 98.392852,174.36581 c -1.193059,0 -2.17711,0.35704 -2.95214,1.08858 -0.940517,0.77501 -1.40206,1.71553 -1.40206,2.80404 v 9.72733 c 0,1.09724 0.470289,2.02903 1.40206,2.81277 0.783745,0.67055 1.767802,1.01015 2.960835,1.01015 l 10.902893,-0.006 v -10.66772 h -8.49068 v 4.05807 h 4.04941 v 2.33388 h -4.59803 c -0.513826,0 -0.879542,-0.0784 -1.088544,-0.23508 -0.261244,-0.26099 -0.391866,-0.54852 -0.391866,-0.85343 v -6.62703 c 0,-0.26984 0.07824,-0.47902 0.1741,-0.65318 0.121964,-0.20917 0.313505,-0.4531 0.644415,-0.60982 0.18282,-0.0784 0.400585,-0.13081 0.661845,-0.13081 l 9.03059,-0.006 v -4.04941 z m 0,0"
         id="path78"
         style="fill:#040606;fill-opacity:1;stroke-width:2.22935" />
      <path
         fill-rule="nonzero"
         fill="#ffffff"
         fill-opacity="1"
         d="m 126.68635,186.42695 c 0,-1.45434 -0.52249,-2.59512 -1.56749,-3.4224 0.88823,-0.67927 1.56749,-1.49782 1.56749,-2.47316 0,-0.29638 -0.009,-1.52398 -0.009,-1.52398 0,-1.40209 -1.15824,-2.83027 -1.83748,-3.37014 -1.23659,-0.9754 -2.60381,-1.28018 -4.31066,-1.28018 h -9.10901 v 17.45159 h 4.59802 l -0.009,-6.61837 4.51964,-0.006 c 0.47029,0 0.82731,0.10427 1.08855,0.31344 0.26124,0.26163 0.39186,0.57507 0.39186,0.94052 v 5.36435 h 4.67639 z m -6.15683,-5.29471 h -4.51963 v -2.71702 l 4.51963,-0.006 c 0.47023,0 1.48044,0.25277 1.48044,1.40208 0,1.1495 -1.01018,1.32366 -1.48044,1.32366"
         id="path79"
         style="fill:#040606;fill-opacity:1;stroke-width:2.22935" />
      <path
         fill-rule="nonzero"
         fill="#ffffff"
         fill-opacity="1"
         d="m 165.79567,174.36581 v 17.44287 h 4.51964 v -6.61837 l 4.74607,-0.006 c 1.66329,0 3.0044,-0.55737 4.12776,-1.55009 0.90568,-0.79245 1.79394,-2.00293 1.79394,-3.82292 0,-1.40208 -0.60085,-2.67348 -1.79394,-3.81433 -1.08854,-1.08851 -2.46447,-1.63716 -4.12776,-1.63716 z m 9.11766,6.76643 h -4.51964 v -2.71702 l 4.51964,-0.006 c 0.46157,0 1.47173,0.25277 1.47173,1.40208 0,1.1495 -1.01017,1.32366 -1.47173,1.32366"
         id="path80"
         style="fill:#040606;fill-opacity:1;stroke-width:2.22935" />
      <path
         fill-rule="nonzero"
         fill="#ffffff"
         fill-opacity="1"
         d="m 45.489467,180.25271 c -0.531209,-3.72718 -4.075533,-5.8869 -7.689504,-5.89562 -3.622679,0.006 -7.167004,2.16844 -7.698213,5.89562 -0.09586,0.13081 -0.08714,7.34984 -0.08714,7.34984 l 4.641562,4.20613 0.0088,-10.52844 c 0.06958,-1.95067 1.593627,-2.88247 3.135017,-2.84758 1.532676,-0.0379 3.065352,0.89691 3.126303,2.84758 l 0.0088,10.52844 h 4.632841 c -0.02591,-0.53968 0.07849,-11.34699 -0.07823,-11.55597"
         id="path81"
         style="fill:#040606;fill-opacity:1;stroke-width:2.22935" />
      <path
         fill-rule="nonzero"
         fill="#ffffff"
         fill-opacity="1"
         d="m 75.141481,174.35709 c -4.998615,0 -9.056713,3.91006 -9.056713,8.72583 0,4.8157 4.058098,8.72576 9.056713,8.72576 4.998615,0 9.047992,-3.91006 9.047992,-8.72576 0,-4.81577 -4.049377,-8.72583 -9.047992,-8.72583 m 0,13.45444 c -2.708318,0 -4.902819,-2.11611 -4.902819,-4.72861 0,-2.61251 2.194501,-4.72869 4.902819,-4.72869 2.708299,0 4.902819,2.11618 4.902819,4.72869 0,2.6125 -2.19452,4.72861 -4.902819,4.72861"
         id="path82"
         style="fill:#040606;fill-opacity:1;stroke-width:2.22935" />
      <path
         fill-rule="nonzero"
         fill="#ffffff"
         fill-opacity="1"
         d="m 137.6502,174.35709 c -5.01603,0 -9.08284,3.91006 -9.08284,8.72583 0,4.8157 4.06681,8.72576 9.08284,8.72576 5.02474,0 9.09156,-3.91006 9.09156,-8.72576 0,-4.81577 -4.06682,-8.72583 -9.09156,-8.72583 m 0,13.45444 c -2.71702,0 -4.92023,-2.11611 -4.92023,-4.72861 0,-2.61251 2.20321,-4.72869 4.92023,-4.72869 2.72573,0 4.92895,2.11618 4.92895,4.72869 0,2.6125 -2.20322,4.72861 -4.92895,4.72861"
         id="path83"
         style="fill:#040606;fill-opacity:1;stroke-width:2.22935" />
      <path
         fill-rule="nonzero"
         fill="#ffffff"
         fill-opacity="1"
         d="m 155.81588,96.208155 c -9.80564,0 -18.58369,4.441255 -24.45312,11.416675 0.0871,0.0785 0.15672,0.13062 0.15672,0.13062 l 9.74466,9.61405 c 3.31792,-4.44997 8.59517,-7.34986 14.55171,-7.34986 10.01464,0 18.15696,8.14232 18.15696,18.14824 0,10.00595 -8.14232,18.14832 -18.15696,18.14832 -4.42386,0 -8.47325,-1.59363 -11.63439,-4.23233 l -9.64017,9.91012 c 5.66044,5.05091 13.11481,8.13364 21.27456,8.13364 17.62575,0 31.95975,-14.33398 31.95975,-31.95975 0,-17.61703 -14.334,-31.959718 -31.95975,-31.959718"
         id="path84"
         style="fill:#040606;fill-opacity:1;stroke-width:2.22935" />
      <path
         fill-rule="nonzero"
         fill="#ffffff"
         fill-opacity="1"
         d="M 42.720198,159.49196 28.66487,145.4366 c -10.963845,-10.96385 -11.068336,-28.90311 -0.235145,-39.98886 5.355661,-5.477563 12.522646,-8.516784 20.177305,-8.560344 0.0613,0 0.113243,0 0.174099,0 7.593702,0 14.725867,2.95214 20.107633,8.325214 l 5.521109,5.52982 -8.542914,8.54291 -5.529823,-5.5211 c -3.091477,-3.09147 -7.193115,-4.78961 -11.564726,-4.78961 -0.02591,0 -0.06067,0 -0.09586,0 -4.397715,0.0177 -8.525479,1.7678 -11.599545,4.92023 -6.235208,6.37454 -6.174238,16.69395 0.130622,22.99883 l 22.502446,22.50247 z m 0,0"
         id="path85"
         style="fill:#040606;fill-opacity:1;stroke-width:2.22935" />
    </g>
  </g>
</svg>
