<svg xmlns="http://www.w3.org/2000/svg" viewBox="0 0 167.403 99.998"><g fill="#fff" style="fill:#040606;fill-opacity:1"><path d="M112.43 159.884H93.326l9.788 9.788q.234.236.47.392 1.11.797 2.299 0 .236-.156.47-.392l10.024-10.11q-1.972.324-3.945.322M97.182 115.741a5.94 5.94 0 0 0-2.934.775c-.4.218-2.439 1.08-2.674 4.755-.096 1.472.505 2.734 1.507 3.788 1.262 1.21 2.62 1.82 4.101 1.82 0 0 1.324.018 2.526-.279l11.495-2.821s1.541-.366 3.727-.148c4.197.41 7.794 2.351 10.833 5.52 3.788 3.737 5.687 8.24 5.687 13.508q0 1.972-.235 3.71l13.498-13.586q1.58-1.58 0-3.16l-13.82-13.89zm0 0" style="fill:#040606;fill-opacity:1;stroke-width:2.22935" transform="translate(-20.373 -91.81)"/><path d="M64.491 129.648c-.94 1.054-.862 2.108.244 3.161l15.161 15.31 32.526-.006c1.69 0 3.004-.48 3.954-1.428 1.097-1.159 1.654-2.5 1.654-4.024 0-1.637-.557-2.97-1.663-4.032-.95-.992-2.264-1.497-3.945-1.489l-13.176 2.665s-1.393.479-3.631.357c-4.633-.253-8.552-2.186-11.774-5.547-3.84-3.788-5.765-8.23-5.765-13.333 0-2.273 1.028-6.165 1.028-6.165zM103.095 92.603l-12.157 12.235h.079c1.898-.627 3.953-.95 6.157-.95h20.055l-10.903-11.285c-.6-.531-1.176-.793-1.715-.793q-.81-.002-1.516.793M156.687 191.809h-.862c-3.963 0-7.176-3.222-7.176-7.176v-10.276h4.572v10.276c0 .583.2 1.176.531 1.672.47.705 1.14 1.184 2.334 1.21 1.184.026 2.081-.426 2.56-1.053.392-.523.636-1.176.636-1.829v-10.276h4.58v10.276c0 3.954-3.222 7.176-7.175 7.176M53.083 174.392c-7.245.766-7.794 10.163-.34 11.05.218.026.715.105 1.35-.043 1.916-.445 5.652-1.742 6.079.47.026.13.052.514-.044.775-.235.644-.923 1.237-1.68 1.245H47.16c2.7 2.404 4.555 3.919 4.555 3.919h4.79s2.499.006 2.769-.019c6.723-.636 6.888-10.624-.296-10.938-.035 0-.157-.006-.183-.006a10 10 0 0 0-.81.07c-.94.148-3.065.488-4.058.636-.766.113-1.228-.026-1.507-.157-.827-.4-.975-1.324-.566-2.273.157-.383.67-.74 1.324-.723l11.269.044-4.241-4.075h-6.558s-.461.006-.566.025M98.393 174.366c-1.193 0-2.177.357-2.952 1.088-.94.775-1.402 1.716-1.402 2.804v9.728c0 1.097.47 2.029 1.402 2.813.783.67 1.768 1.01 2.96 1.01l10.903-.006v-10.668h-8.49v4.058h4.05v2.334h-4.599c-.514 0-.88-.078-1.088-.235-.262-.261-.392-.549-.392-.854v-6.627c0-.27.078-.479.174-.653.122-.209.313-.453.644-.61.183-.078.4-.13.662-.13l9.03-.006v-4.05zM126.686 186.427q0-2.181-1.567-3.422c.888-.68 1.567-1.498 1.567-2.474 0-.296-.009-1.524-.009-1.524 0-1.402-1.158-2.83-1.837-3.37-1.237-.975-2.604-1.28-4.31-1.28h-9.11v17.452h4.598l-.009-6.619 4.52-.006c.47 0 .827.105 1.088.314q.392.392.392.94v5.365h4.677zm-6.156-5.295h-4.52v-2.717l4.52-.006c.47 0 1.48.253 1.48 1.402s-1.01 1.324-1.48 1.324M165.796 174.366v17.443h4.52v-6.619l4.745-.006c1.664 0 3.005-.557 4.128-1.55.906-.792 1.794-2.003 1.794-3.823q-.001-2.103-1.794-3.814-1.632-1.635-4.128-1.637zm9.117 6.766h-4.52v-2.717l4.52-.006c.462 0 1.472.253 1.472 1.402s-1.01 1.324-1.472 1.324M45.49 180.253c-.532-3.727-4.076-5.887-7.69-5.896-3.623.006-7.167 2.169-7.698 5.896-.096.13-.087 7.35-.087 7.35l4.641 4.206.009-10.529c.07-1.95 1.594-2.882 3.135-2.847 1.533-.038 3.065.897 3.126 2.847l.01 10.529h4.632c-.026-.54.078-11.347-.078-11.556M75.141 174.357c-4.998 0-9.056 3.91-9.056 8.726s4.058 8.726 9.056 8.726c5 0 9.048-3.91 9.048-8.726s-4.049-8.726-9.048-8.726m0 13.455c-2.708 0-4.902-2.117-4.902-4.73 0-2.612 2.194-4.728 4.902-4.728s4.903 2.116 4.903 4.729-2.194 4.729-4.903 4.729M137.65 174.357c-5.016 0-9.083 3.91-9.083 8.726s4.067 8.726 9.083 8.726c5.025 0 9.092-3.91 9.092-8.726s-4.067-8.726-9.092-8.726m0 13.455c-2.717 0-4.92-2.117-4.92-4.73 0-2.612 2.203-4.728 4.92-4.728 2.726 0 4.93 2.116 4.93 4.729s-2.204 4.729-4.93 4.729M155.816 96.208c-9.806 0-18.584 4.441-24.453 11.417.087.078.156.13.156.13l9.745 9.615c3.318-4.45 8.595-7.35 14.552-7.35 10.014 0 18.157 8.142 18.157 18.148s-8.143 18.148-18.157 18.148c-4.424 0-8.473-1.593-11.635-4.232l-9.64 9.91c5.66 5.05 13.115 8.134 21.275 8.134 17.626 0 31.96-14.334 31.96-31.96 0-17.617-14.334-31.96-31.96-31.96" style="fill:#040606;fill-opacity:1;stroke-width:2.22935" transform="translate(-20.373 -91.81)"/><path d="m42.72 159.492-14.055-14.055c-10.964-10.964-11.068-28.904-.235-39.99 5.355-5.477 12.522-8.516 20.177-8.56h.174c7.594 0 14.726 2.953 20.108 8.326l5.52 5.53-8.542 8.542-5.53-5.52a16.24 16.24 0 0 0-11.565-4.79h-.095a16.2 16.2 0 0 0-11.6 4.92c-6.235 6.374-6.174 16.694.13 22.999l22.503 22.502zm0 0" style="fill:#040606;fill-opacity:1;stroke-width:2.22935" transform="translate(-20.373 -91.81)"/></g></svg>