<?xml version="1.0" encoding="UTF-8"?>
<svg id="Layer_1" data-name="Layer 1" xmlns="http://www.w3.org/2000/svg" viewBox="0 0 32 32">
  <defs>
    <style>
      .cls-1, .cls-2, .cls-3 {
        stroke-width: 0px;
      }

      .cls-2 {
        fill: #fff;
      }

      .cls-3 {
        fill: #4a8e02;
      }
    </style>
  </defs>
  <path class="cls-2" d="m19.32,7.28h-5.91c-.2,0-.37.16-.37.37v18.86c0,.21.16.37.37.37h5.91c.2,0,.37-.16.37-.37V7.64c0-.2-.16-.37-.37-.37Zm-2.95,2.03c-.26,0-.47-.21-.47-.47s.21-.47.47-.47.47.21.47.47-.21.47-.47.47Z"/>
  <path class="cls-3" d="m26.08,5.13l-5.9.27c-.2,0-.36.18-.35.38l.82,20.73c0,.21.18.36.38.36l5.9-.27c.2,0,.36-.18.35-.39l-.82-20.73c0-.2-.18-.36-.38-.35Zm-2.85,2.16c-.26.01-.48-.19-.5-.45s.19-.48.45-.49.48.19.49.45-.19.48-.45.5Z"/>
  <path class="cls-1" d="m11.33,8.18l-5.89.4c-.2.01-.35.19-.34.39l1.18,17.56c.01.21.19.36.39.35l5.89-.4c.2-.01.35-.19.34-.4l-1.18-17.56c-.01-.2-.19-.35-.39-.34Zm-2.81,2.22c-.26.02-.49-.18-.5-.44s.18-.48.44-.5.48.18.5.44-.18.49-.43.5Z"/>
</svg>