<svg width="300" height="64" viewBox="6 12 517 81" fill="none" xmlns="http://www.w3.org/2000/svg">
<g>
<path d="M133.164 56.9488L113.954 23.5961C105.493 7.78205 80.5364 10.706 75.6973 27.8028C62.3766 -2.48207 20.7292 19.0562 38.1988 46.9852C25.3239 43.9451 12.4365 54.2622 12.6053 67.5488C12.366 91.357 46.9852 96.3616 53.6809 73.8638C61.7443 93.0866 87.2724 93.7154 94.298 73.7552C106.903 102.613 146.699 84.8501 133.164 56.9488ZM33.6267 81.8024C14.9379 81.4666 14.9404 53.6259 33.6267 53.2952C52.3155 53.631 52.313 81.4717 33.6267 81.8024ZM85.2622 58.1861C86.0003 59.4764 86.6502 60.8197 87.164 62.216C89.5244 68.627 89.0785 74.9875 81.3652 79.79C74.8232 83.7568 65.6237 81.2873 61.9383 74.5733L42.728 41.2206C40.8287 37.923 40.3249 34.0825 41.3073 30.4035C44.3402 18.2861 61.3085 16.0514 67.3593 26.967C67.3593 26.967 77.433 44.4703 77.5413 44.6723L85.2597 58.1886L85.2622 58.1861ZM81.534 34.1431C81.8539 15.4101 109.654 15.4126 109.969 34.1431C109.649 52.876 81.8489 52.8735 81.534 34.1431ZM128.696 71.1747C126.869 78.6159 118.622 83.3906 111.279 81.2545C107.611 80.2698 104.543 77.9114 102.644 74.6138C101.674 72.9498 91.8293 55.8278 91.192 54.7066C101.754 57.2215 112.833 50.495 115.806 40.448L127.275 60.3601C129.174 63.6578 129.678 67.4983 128.696 71.1772V71.1747Z" fill="#00B4BE"/>
<path d="M229.158 87.4003C226.221 87.4003 223.737 84.9107 223.737 81.964V59.8198C223.737 54.0956 219.092 49.437 213.384 49.437C207.675 49.437 203.03 54.0956 203.03 59.8198V81.964C203.03 84.9107 200.549 87.4003 197.609 87.4003C194.67 87.4003 192.191 84.9107 192.191 81.964V59.8198C192.191 54.0956 187.546 49.437 181.837 49.437C176.129 49.437 171.484 54.0956 171.484 59.8198V81.964C171.484 84.9107 169.003 87.4003 166.063 87.4003C163.123 87.4003 160.642 84.9107 160.642 81.964V59.8198C160.642 48.1012 170.149 38.5668 181.835 38.5668C187.508 38.5668 192.886 40.8267 196.977 44.9298L197.614 45.5687L198.242 44.9223C202.171 40.8848 207.688 38.5668 213.378 38.5668C225.064 38.5668 234.571 48.1012 234.571 59.8198V81.964C234.571 84.9107 232.09 87.4003 229.15 87.4003H229.158Z" fill="#0F1428"/>
<path d="M357.241 87.4003C343.817 87.4003 332.895 76.4469 332.895 62.9836C332.895 49.5203 343.817 38.5668 357.241 38.5668C370.665 38.5668 381.588 49.5203 381.588 62.9836C381.588 76.4469 370.665 87.4003 357.241 87.4003ZM357.241 49.4395C349.792 49.4395 343.734 55.5172 343.734 62.9861C343.734 70.4551 349.792 76.5327 357.241 76.5327C364.69 76.5327 370.748 70.4551 370.748 62.9861C370.748 55.5172 364.69 49.4395 357.241 49.4395Z" fill="#0F1428"/>
<path d="M456.169 87.4003C453.232 87.4003 450.748 84.9107 450.748 81.964V59.8198C450.748 54.0956 446.103 49.437 440.395 49.437C434.687 49.437 430.042 54.0956 430.042 59.8198V81.964C430.042 84.9107 427.561 87.4003 424.623 87.4003C421.686 87.4003 419.202 84.9107 419.202 81.964V59.8198C419.202 54.0956 414.557 49.437 408.849 49.437C403.141 49.437 398.496 54.0956 398.496 59.8198V81.964C398.496 84.9107 396.014 87.4003 393.075 87.4003C390.135 87.4003 387.654 84.9107 387.654 81.964V59.8198C387.654 48.1012 397.161 38.5668 408.846 38.5668C414.522 38.5668 419.9 40.8267 423.991 44.9298L424.628 45.5687L425.258 44.9223C429.188 40.8848 434.705 38.5668 440.393 38.5668C452.078 38.5668 461.585 48.1012 461.585 59.8198V81.964C461.585 84.9107 459.104 87.4003 456.164 87.4003H456.169Z" fill="#0F1428"/>
<path d="M492.008 87.4003C478.584 87.4003 467.661 76.4469 467.661 62.9836C467.661 49.5203 478.584 38.5668 492.008 38.5668C505.432 38.5668 516.354 49.5203 516.354 62.9836C516.354 76.4469 505.432 87.4003 492.008 87.4003ZM492.008 49.4395C484.559 49.4395 478.501 55.5172 478.501 62.9861C478.501 70.4551 484.559 76.5327 492.008 76.5327C499.457 76.5327 505.515 70.4551 505.515 62.9861C505.515 55.5172 499.457 49.4395 492.008 49.4395Z" fill="#0F1428"/>
<path d="M290.356 43.8693C290.356 40.9454 287.983 38.5668 285.068 38.5668C282.154 38.5668 279.781 40.9454 279.781 43.8693V45.3818C276.231 40.9959 270.835 38.5668 264.336 38.5668C257.837 38.5668 252.363 40.804 248.033 44.8667C243.29 49.3183 240.781 55.4616 240.781 62.6326C240.781 62.7513 240.788 62.8674 240.788 62.9861C240.788 63.1048 240.781 63.2209 240.781 63.3396C240.781 70.5106 243.287 76.6539 248.033 81.1055C252.361 85.1682 258.152 87.4054 264.336 87.4054C270.835 87.4054 276.231 84.9763 279.781 80.5904V82.1029C279.781 85.0268 282.154 87.4054 285.068 87.4054C287.983 87.4054 290.356 85.0268 290.356 82.1029V63.3421C290.356 63.2235 290.348 63.1073 290.348 62.9886C290.348 62.87 290.356 62.7538 290.356 62.6351V43.8744V43.8693ZM265.505 76.861C257.336 76.861 251.847 71.2833 251.847 62.9836C251.847 54.6839 257.336 49.1062 265.505 49.1062C273.674 49.1062 279.163 54.6839 279.163 62.9836C279.163 71.2833 273.674 76.861 265.505 76.861Z" fill="#0F1428"/>
<path d="M326.131 76.5302H322.977C319.007 76.5302 315.78 73.2906 315.78 69.3112V49.4369H326.134C329.071 49.4369 331.555 46.9473 331.555 44.0006C331.555 41.0539 329.073 38.5643 326.134 38.5643H315.78V31.3453C315.78 28.3986 313.299 25.909 310.359 25.909C307.42 25.909 304.938 28.3986 304.938 31.3453V38.5643H301.978C299.041 38.5643 296.557 41.0539 296.557 44.0006C296.557 46.9473 299.039 49.4369 301.978 49.4369H304.938V69.3112C304.938 79.285 313.029 87.4003 322.975 87.4003H326.129C329.066 87.4003 331.55 84.9107 331.55 81.964C331.55 79.0173 329.068 76.5277 326.129 76.5277L326.131 76.5302Z" fill="#0F1428"/>
</g>
</svg>
