<svg width="590" height="99" viewBox="0 7 590 99" fill="none" xmlns="http://www.w3.org/2000/svg">
<path d="M148.52 63.1512L127.094 26.166C117.657 8.62965 89.8233 11.872 84.4262 30.8308C69.5694 -2.75235 23.1195 21.1316 42.6036 52.1024C28.2441 48.7313 13.8706 60.172 14.0588 74.9056C13.7919 101.307 52.4032 106.856 59.8709 81.9084C68.8642 103.225 97.3359 103.922 105.172 81.788C119.231 113.789 163.615 94.0912 148.52 63.1512ZM37.5043 90.7117C16.6605 90.3393 16.6633 59.4664 37.5043 59.0997C58.3482 59.472 58.3454 90.3449 37.5043 90.7117ZM95.0939 64.5233C95.9171 65.954 96.642 67.4436 97.2151 68.992C99.8476 76.1012 99.3504 83.1544 90.7476 88.48C83.4513 92.8789 73.1909 90.1404 69.0805 82.6952L47.6551 45.7101C45.5367 42.0533 44.9748 37.7945 46.0705 33.7149C49.4532 20.2777 68.3782 17.7997 75.1266 29.904C75.1266 29.904 86.3619 49.3136 86.4827 49.5377L95.0911 64.526L95.0939 64.5233ZM90.9358 37.8617C91.2926 17.0884 122.299 17.0913 122.65 37.8617C122.293 58.6349 91.287 58.632 90.9358 37.8617ZM143.536 78.9265C141.499 87.178 132.3 92.4728 124.111 90.104C120.02 89.012 116.598 86.3969 114.48 82.7401C113.398 80.8949 102.418 61.9081 101.708 60.6648C113.488 63.4536 125.844 55.9944 129.159 44.8533L141.951 66.934C144.07 70.5909 144.631 74.8497 143.536 78.9293V78.9265Z" fill="black"/>
<path d="M255.582 96.9192C252.306 96.9192 249.536 94.1584 249.536 90.8908V66.3348C249.536 59.9872 244.356 54.8212 237.989 54.8212C231.623 54.8212 226.442 59.9872 226.442 66.3348V90.8908C226.442 94.1584 223.675 96.9192 220.396 96.9192C217.117 96.9192 214.353 94.1584 214.353 90.8908V66.3348C214.353 59.9872 209.172 54.8212 202.805 54.8212C196.439 54.8212 191.258 59.9872 191.258 66.3348V90.8908C191.258 94.1584 188.491 96.9192 185.212 96.9192C181.934 96.9192 179.166 94.1584 179.166 90.8908V66.3348C179.166 53.34 189.769 42.7672 202.803 42.7672C209.13 42.7672 215.128 45.2732 219.691 49.8232L220.402 50.5316L221.101 49.8148C225.484 45.3376 231.637 42.7672 237.984 42.7672C251.017 42.7672 261.62 53.34 261.62 66.3348V90.8908C261.62 94.1584 258.853 96.9192 255.574 96.9192H255.582Z" fill="black"/>
<path d="M398.435 96.9192C383.463 96.9192 371.281 84.7728 371.281 69.8432C371.281 54.9136 383.463 42.7672 398.435 42.7672C413.407 42.7672 425.589 54.9136 425.589 69.8432C425.589 84.7728 413.407 96.9192 398.435 96.9192ZM398.435 54.824C390.128 54.824 383.371 61.5636 383.371 69.846C383.371 78.1284 390.128 84.868 398.435 84.868C406.743 84.868 413.5 78.1284 413.5 69.846C413.5 61.5636 406.743 54.824 398.435 54.824Z" fill="black"/>
<path d="M508.771 96.9192C505.495 96.9192 502.725 94.1584 502.725 90.8908V66.3348C502.725 59.9872 497.544 54.8212 491.178 54.8212C484.811 54.8212 479.631 59.9872 479.631 66.3348V90.8908C479.631 94.1584 476.863 96.9192 473.587 96.9192C470.311 96.9192 467.541 94.1584 467.541 90.8908V66.3348C467.541 59.9872 462.361 54.8212 455.994 54.8212C449.628 54.8212 444.447 59.9872 444.447 66.3348V90.8908C444.447 94.1584 441.68 96.9192 438.401 96.9192C435.122 96.9192 432.355 94.1584 432.355 90.8908V66.3348C432.355 53.34 442.958 42.7672 455.991 42.7672C462.321 42.7672 468.32 45.2732 472.882 49.8232L473.593 50.5316L474.295 49.8148C478.678 45.3376 484.831 42.7672 491.175 42.7672C504.208 42.7672 514.812 53.34 514.812 66.3348V90.8908C514.812 94.1584 512.044 96.9192 508.765 96.9192H508.771Z" fill="black"/>
<path d="M548.742 96.9192C533.77 96.9192 521.588 84.7728 521.588 69.8432C521.588 54.9136 533.77 42.7672 548.742 42.7672C563.714 42.7672 575.896 54.9136 575.896 69.8432C575.896 84.7728 563.714 96.9192 548.742 96.9192ZM548.742 54.824C540.434 54.824 533.678 61.5636 533.678 69.846C533.678 78.1284 540.434 84.868 548.742 84.868C557.05 84.868 563.807 78.1284 563.807 69.846C563.807 61.5636 557.05 54.824 548.742 54.824Z" fill="black"/>
<path d="M323.837 48.6472C323.837 45.4048 321.19 42.7672 317.94 42.7672C314.689 42.7672 312.043 45.4048 312.043 48.6472V50.3244C308.084 45.4608 302.066 42.7672 294.817 42.7672C287.569 42.7672 281.464 45.248 276.634 49.7532C271.344 54.6896 268.546 61.502 268.546 69.454C268.546 69.5856 268.554 69.7144 268.554 69.846C268.554 69.9776 268.546 70.1064 268.546 70.238C268.546 78.19 271.341 85.0024 276.634 89.9388C281.461 94.444 287.92 96.9248 294.817 96.9248C302.066 96.9248 308.084 94.2312 312.043 89.3676V91.0448C312.043 94.2872 314.689 96.9248 317.94 96.9248C321.19 96.9248 323.837 94.2872 323.837 91.0448V70.2408C323.837 70.1092 323.829 69.9804 323.829 69.8488C323.829 69.7172 323.837 69.5884 323.837 69.4568V48.6528V48.6472ZM296.121 85.232C287.01 85.232 280.888 79.0468 280.888 69.8432C280.888 60.6396 287.01 54.4544 296.121 54.4544C305.232 54.4544 311.354 60.6396 311.354 69.8432C311.354 79.0468 305.232 85.232 296.121 85.232Z" fill="black"/>
<path d="M363.738 84.8652H360.22C355.792 84.8652 352.193 81.2728 352.193 76.86V54.8212H363.741C367.017 54.8212 369.787 52.0604 369.787 48.7928C369.787 45.5252 367.019 42.7644 363.741 42.7644H352.193V34.7592C352.193 31.4916 349.426 28.7308 346.147 28.7308C342.869 28.7308 340.101 31.4916 340.101 34.7592V42.7644H336.8C333.524 42.7644 330.754 45.5252 330.754 48.7928C330.754 52.0604 333.521 54.8212 336.8 54.8212H340.101V76.86C340.101 87.92 349.125 96.9192 360.217 96.9192H363.735C367.011 96.9192 369.781 94.1584 369.781 90.8908C369.781 87.6232 367.014 84.8624 363.735 84.8624L363.738 84.8652Z" fill="black"/>
</svg>
